<svg width="38" height="31" viewBox="0 0 38 31" fill="none" xmlns="http://www.w3.org/2000/svg">
<path d="M21.457 11.6133C21.457 11.6367 21.4609 11.668 21.4688 11.707C21.4766 11.7383 21.4805 11.7734 21.4805 11.8125C21.4805 11.9766 21.4141 12.1211 21.2812 12.2461C21.1562 12.3711 21.0156 12.4336 20.8594 12.4336C20.7344 12.4336 20.6172 12.3945 20.5078 12.3164C20.4062 12.2383 20.332 12.1328 20.2852 12C20.1836 11.7031 20.0859 11.3867 19.9922 11.0508C19.8984 10.707 19.8125 10.3711 19.7344 10.043C19.6641 9.71484 19.5977 9.40625 19.5352 9.11719C19.4727 8.82812 19.4258 8.58203 19.3945 8.37891C18.9492 8.40234 18.4414 8.42188 17.8711 8.4375C17.3008 8.44531 16.6875 8.44922 16.0312 8.44922L15.6445 22.9219C16.2852 22.9453 16.9023 22.9922 17.4961 23.0625C17.668 23.0781 17.8008 23.1445 17.8945 23.2617C17.9961 23.3711 18.0469 23.5039 18.0469 23.6602C18.0469 23.8555 17.9805 24.0078 17.8477 24.1172C17.7227 24.2344 17.5898 24.293 17.4492 24.293H17.3789C16.7461 24.2148 16.1211 24.1602 15.5039 24.1289C14.8867 24.1055 14.2695 24.0938 13.6523 24.0938C13.0273 24.0938 12.4141 24.1055 11.8125 24.1289C11.2109 24.1602 10.6094 24.2148 10.0078 24.293H9.9375C9.76562 24.293 9.61719 24.2266 9.49219 24.0938C9.375 23.9609 9.31641 23.8164 9.31641 23.6602C9.31641 23.5039 9.36719 23.3711 9.46875 23.2617C9.57812 23.1445 9.71094 23.0781 9.86719 23.0625C10.4688 22.9922 11.0586 22.9453 11.6367 22.9219L11.9062 8.37891C11.2422 8.35547 10.6172 8.32812 10.0312 8.29688C9.45312 8.25781 8.93359 8.21875 8.47266 8.17969C8.42578 8.39062 8.36719 8.64844 8.29688 8.95312C8.23438 9.25781 8.16016 9.58203 8.07422 9.92578C7.99609 10.2695 7.91406 10.6211 7.82812 10.9805C7.74219 11.332 7.65234 11.6641 7.55859 11.9766C7.51953 12.1094 7.44531 12.2188 7.33594 12.3047C7.23438 12.3906 7.11719 12.4336 6.98438 12.4336C6.80469 12.4336 6.65625 12.3711 6.53906 12.2461C6.42188 12.1133 6.36328 11.9688 6.36328 11.8125C6.36328 11.7891 6.36328 11.7617 6.36328 11.7305C6.36328 11.6914 6.37109 11.6602 6.38672 11.6367C6.50391 11.2227 6.62109 10.7695 6.73828 10.2773C6.85547 9.78516 6.96094 9.32422 7.05469 8.89453C7.15625 8.46484 7.23828 8.10547 7.30078 7.81641C7.36328 7.52734 7.39453 7.37891 7.39453 7.37109C7.43359 7.22266 7.50391 7.10547 7.60547 7.01953C7.71484 6.93359 7.84375 6.89062 7.99219 6.89062H8.08594C8.49219 6.94531 8.98438 6.99219 9.5625 7.03125C10.1484 7.07031 10.7773 7.10547 11.4492 7.13672C12.1289 7.16016 12.832 7.17969 13.5586 7.19531C14.2852 7.21094 14.9961 7.21875 15.6914 7.21875C16.543 7.21875 17.3281 7.21094 18.0469 7.19531C18.7656 7.17188 19.3672 7.14062 19.8516 7.10156H19.8984C20.0391 7.10156 20.168 7.15234 20.2852 7.25391C20.4023 7.34766 20.4727 7.46484 20.4961 7.60547C20.4961 7.61328 20.5078 7.67969 20.5312 7.80469C20.5547 7.92969 20.5859 8.09766 20.625 8.30859C20.6641 8.51953 20.7109 8.76172 20.7656 9.03516C20.8281 9.30859 20.8945 9.59375 20.9648 9.89062C21.0352 10.1797 21.1094 10.4766 21.1875 10.7812C21.2734 11.0781 21.3633 11.3555 21.457 11.6133ZM30.772 24.1641H30.6548C30.3423 24.1094 30.0572 24.0625 29.7994 24.0234C29.5416 23.9844 29.2955 23.957 29.0611 23.9414C28.8267 23.918 28.5884 23.9023 28.3463 23.8945C28.1119 23.8867 27.858 23.8828 27.5845 23.8828C27.0298 23.8828 26.4908 23.9062 25.9673 23.9531C25.4439 23.9922 24.8697 24.0703 24.2447 24.1875H24.1275C23.9322 24.1875 23.7838 24.125 23.6822 24C23.5806 23.8828 23.5298 23.7383 23.5298 23.5664C23.5298 23.4258 23.5728 23.3008 23.6588 23.1914C23.7447 23.082 23.8619 23.0078 24.0103 22.9688C24.2994 22.9219 24.5611 22.8867 24.7955 22.8633C25.0298 22.832 25.2798 22.8047 25.5455 22.7812V8.47266C25.0533 8.43359 24.6978 8.39844 24.4791 8.36719C24.2681 8.32812 24.1431 8.30859 24.1041 8.30859C23.9478 8.28516 23.8189 8.21484 23.7173 8.09766C23.6236 7.98047 23.5767 7.84766 23.5767 7.69922C23.5767 7.49609 23.647 7.34375 23.7877 7.24219C23.9283 7.13281 24.065 7.07812 24.1978 7.07812H24.2681C24.2759 7.07812 24.3463 7.08984 24.4791 7.11328C24.6119 7.12891 24.7916 7.15234 25.0181 7.18359C25.2525 7.20703 25.5259 7.23047 25.8384 7.25391C26.1588 7.26953 26.5064 7.27734 26.8814 7.27734C27.2564 7.27734 27.6236 7.26562 27.983 7.24219C28.3423 7.21094 28.6705 7.16406 28.9673 7.10156C28.9908 7.08594 29.0338 7.07812 29.0963 7.07812C29.2759 7.07812 29.4244 7.14453 29.5416 7.27734C29.6588 7.40234 29.7173 7.54297 29.7173 7.69922L29.6939 22.7812C29.8267 22.7969 29.9361 22.8125 30.022 22.8281C30.1158 22.8359 30.2017 22.8477 30.2798 22.8633C30.3658 22.8711 30.4517 22.8828 30.5377 22.8984C30.6314 22.9062 30.7486 22.9219 30.8892 22.9453C31.0377 22.9844 31.1588 23.0586 31.2525 23.168C31.3463 23.2773 31.3931 23.4023 31.3931 23.543C31.3931 23.7227 31.3267 23.8711 31.1939 23.9883C31.0689 24.1055 30.9283 24.1641 30.772 24.1641Z" fill="white"/>
<path d="M21.457 11.6133H27.457V10.5562L27.0958 9.56282L21.457 11.6133ZM21.4688 11.707L15.5853 12.8837L15.6133 13.0237L15.6479 13.1622L21.4688 11.707ZM21.2812 12.2461L17.1691 7.87689L17.1029 7.93919L17.0386 8.00345L21.2812 12.2461ZM20.5078 12.3164L16.8495 17.0722L16.9338 17.137L17.0204 17.1988L20.5078 12.3164ZM20.2852 12L14.6082 13.9421L14.6176 13.9696L14.6272 13.9969L20.2852 12ZM19.9922 11.0508L14.2036 12.6295L14.2083 12.6465L14.213 12.6636L19.9922 11.0508ZM19.7344 10.043L13.8676 11.3001L13.8818 11.3666L13.8975 11.4327L19.7344 10.043ZM19.3945 8.37891L25.3248 7.46656L24.4994 2.10192L19.0792 2.3872L19.3945 8.37891ZM17.8711 8.4375L17.9533 14.4369L17.9944 14.4364L18.0354 14.4352L17.8711 8.4375ZM16.0312 8.44922V2.44922H10.1894L10.0334 8.28895L16.0312 8.44922ZM15.6445 22.9219L9.64667 22.7616L9.48798 28.7006L15.4252 28.9179L15.6445 22.9219ZM17.4961 23.0625L16.7905 29.0209L16.8716 29.0305L16.9529 29.0379L17.4961 23.0625ZM17.8945 23.2617L13.2093 27.0099L13.3474 27.1825L13.4978 27.3444L17.8945 23.2617ZM17.8477 24.1172L14.0334 19.4856L13.8846 19.6081L13.744 19.74L17.8477 24.1172ZM17.3789 24.293L16.6437 30.2478L17.0099 30.293H17.3789V24.293ZM15.5039 24.1289L15.8073 18.1366L15.7695 18.1347L15.7316 18.1332L15.5039 24.1289ZM11.8125 24.1289L11.5789 18.1335L11.5401 18.135L11.5012 18.137L11.8125 24.1289ZM10.0078 24.293V30.293H10.3958L10.7805 30.243L10.0078 24.293ZM9.49219 24.0938L4.99316 28.0635L5.05693 28.1358L5.12299 28.2059L9.49219 24.0938ZM9.46875 23.2617L5.08242 19.1678L5.0772 19.1734L5.07199 19.179L9.46875 23.2617ZM9.86719 23.0625L10.4642 29.0327L10.514 29.0277L10.5637 29.0219L9.86719 23.0625ZM11.6367 22.9219L11.8798 28.917L17.5309 28.6879L17.6357 23.0331L11.6367 22.9219ZM11.9062 8.37891L17.9052 8.49009L18.0146 2.59076L12.1179 2.38264L11.9062 8.37891ZM10.0312 8.29688L9.62677 14.2832L9.66922 14.2861L9.7117 14.2884L10.0312 8.29688ZM8.47266 8.17969L8.97931 2.20112L3.75328 1.75823L2.61553 6.8781L8.47266 8.17969ZM8.29688 8.95312L2.45053 7.60397L2.43402 7.67552L2.41926 7.74746L8.29688 8.95312ZM8.07422 9.92578L2.25336 8.47057L2.23772 8.53315L2.22342 8.59605L8.07422 9.92578ZM7.82812 10.9805L13.6565 12.4052L13.6601 12.3906L13.6636 12.3759L7.82812 10.9805ZM7.55859 11.9766L1.81164 10.2525L1.80698 10.268L1.8024 10.2836L7.55859 11.9766ZM7.33594 12.3047L3.62901 7.58678L3.5434 7.65404L3.46028 7.72437L7.33594 12.3047ZM6.53906 12.2461L2.04004 16.2158L2.09993 16.2837L2.16184 16.3497L6.53906 12.2461ZM6.38672 11.6367L11.379 14.9649L11.9028 14.1792L12.16 13.2707L6.38672 11.6367ZM7.05469 8.89453L1.21558 7.51438L1.20365 7.56485L1.19259 7.61553L7.05469 8.89453ZM7.39453 7.37109L1.59208 5.84413L1.39453 6.59483V7.37109H7.39453ZM7.60547 7.01953L3.89854 2.30162L3.81293 2.36889L3.72982 2.43921L7.60547 7.01953ZM8.08594 6.89062L8.88641 0.944261L8.48797 0.890625H8.08594V6.89062ZM9.5625 7.03125L9.15802 13.0176L9.16339 13.018L9.5625 7.03125ZM11.4492 7.13672L11.1705 13.1302L11.2064 13.1319L11.2424 13.1332L11.4492 7.13672ZM18.0469 7.19531L18.1773 13.1939L18.2099 13.1932L18.2424 13.1921L18.0469 7.19531ZM19.8516 7.10156V1.10156H19.61L19.3693 1.12098L19.8516 7.10156ZM20.2852 7.25391L16.3556 11.788L16.4448 11.8654L16.537 11.9391L20.2852 7.25391ZM20.4961 7.60547H26.4961V7.10889L26.4145 6.61907L20.4961 7.60547ZM20.7656 9.03516L14.8821 10.2119L14.8982 10.2922L14.9165 10.3721L20.7656 9.03516ZM20.9648 9.89062L15.1264 11.2734L15.1305 11.2911L15.1348 11.3087L20.9648 9.89062ZM21.1875 10.7812L15.3755 12.2715L15.3984 12.3609L15.4241 12.4496L21.1875 10.7812ZM15.457 11.6133C15.457 12.2113 15.5457 12.6857 15.5853 12.8837L27.3522 10.5303C27.3699 10.6186 27.3935 10.7488 27.4136 10.9101C27.4328 11.0634 27.457 11.3084 27.457 11.6133H15.457ZM15.6479 13.1622C15.5147 12.6295 15.4805 12.1641 15.4805 11.8125H27.4805C27.4805 11.3828 27.4384 10.8471 27.2896 10.2518L15.6479 13.1622ZM15.4805 11.8125C15.4805 11.0578 15.6393 10.2775 15.9786 9.53894C16.3116 8.81411 16.7547 8.26684 17.1691 7.87689L25.3934 16.6153C26.5822 15.4965 27.4805 13.8248 27.4805 11.8125H15.4805ZM17.0386 8.00345C17.4203 7.62173 17.9503 7.21269 18.6452 6.90385C19.3541 6.5888 20.1113 6.43359 20.8594 6.43359V18.4336C22.8211 18.4336 24.4348 17.5779 25.5239 16.4887L17.0386 8.00345ZM20.8594 6.43359C22.0808 6.43359 23.1679 6.84307 23.9952 7.43401L17.0204 17.1988C18.0664 17.946 19.3879 18.4336 20.8594 18.4336V6.43359ZM24.1661 7.56066C25.074 8.25906 25.6438 9.15503 25.9431 10.0031L14.6272 13.9969C15.0203 15.1106 15.7385 16.2175 16.8495 17.0722L24.1661 7.56066ZM25.9621 10.0579C25.9016 9.88097 25.8376 9.67521 25.7714 9.43799L14.213 12.6636C14.3343 13.0982 14.4656 13.5253 14.6082 13.9421L25.9621 10.0579ZM25.7808 9.47208C25.7032 9.18757 25.6335 8.9147 25.5712 8.65325L13.8975 11.4327C13.9915 11.8275 14.0937 12.2265 14.2036 12.6295L25.7808 9.47208ZM25.6012 8.78579C25.5302 8.45453 25.463 8.1423 25.3996 7.84919L13.6707 10.3852C13.7323 10.6702 13.7979 10.9752 13.8676 11.3001L25.6012 8.78579ZM25.3996 7.84919C25.3526 7.63171 25.3317 7.51143 25.3248 7.46656L13.4643 9.29125C13.5199 9.65263 13.5927 10.0245 13.6707 10.3852L25.3996 7.84919ZM19.0792 2.3872C18.6958 2.40738 18.2398 2.42515 17.7068 2.43975L18.0354 14.4352C18.643 14.4186 19.2027 14.3973 19.7099 14.3706L19.0792 2.3872ZM17.7889 2.43806C17.2497 2.44545 16.6641 2.44922 16.0312 2.44922V14.4492C16.7109 14.4492 17.3519 14.4452 17.9533 14.4369L17.7889 2.43806ZM10.0334 8.28895L9.64667 22.7616L21.6424 23.0821L22.0291 8.60949L10.0334 8.28895ZM15.4252 28.9179C15.9148 28.9358 16.3693 28.971 16.7905 29.0209L18.2017 17.1041C17.4354 17.0134 16.6555 16.9548 15.8639 16.9259L15.4252 28.9179ZM16.9529 29.0379C16.4128 28.9888 15.7433 28.8416 15.0413 28.4906C14.3227 28.1313 13.6988 27.6218 13.2093 27.0099L22.5797 19.5135C21.3102 17.9266 19.5712 17.2264 18.0393 17.0871L16.9529 29.0379ZM13.4978 27.3444C13.0519 26.8642 12.6671 26.2732 12.4045 25.5862C12.1436 24.9039 12.0469 24.242 12.0469 23.6602H24.0469C24.0469 22.0676 23.4753 20.4541 22.2913 19.179L13.4978 27.3444ZM12.0469 23.6602C12.0469 23.0755 12.1478 22.3243 12.4969 21.5234C12.8552 20.7013 13.3962 20.0104 14.0334 19.4856L21.6619 28.7488C23.3762 27.337 24.0469 25.3758 24.0469 23.6602H12.0469ZM13.744 19.74C14.4749 19.0548 15.7472 18.293 17.4492 18.293V30.293C19.4324 30.293 20.9704 29.414 21.9513 28.4944L13.744 19.74ZM17.4492 18.293H17.3789V30.293H17.4492V18.293ZM18.1141 18.3382C17.3424 18.2429 16.5733 18.1754 15.8073 18.1366L15.2005 30.1212C15.6689 30.1449 16.1498 30.1868 16.6437 30.2478L18.1141 18.3382ZM15.7316 18.1332C15.0386 18.1069 14.3455 18.0938 13.6523 18.0938V30.0938C14.1936 30.0938 14.7348 30.104 15.2762 30.1246L15.7316 18.1332ZM13.6523 18.0938C12.9524 18.0938 12.2612 18.1069 11.5789 18.1335L12.0461 30.1244C12.5669 30.1041 13.1023 30.0938 13.6523 30.0938V18.0938ZM11.5012 18.137C10.7443 18.1763 9.98879 18.2451 9.23508 18.3429L10.7805 30.243C11.23 30.1846 11.6776 30.144 12.1238 30.1208L11.5012 18.137ZM10.0078 18.293H9.9375V30.293H10.0078V18.293ZM9.9375 18.293C10.647 18.293 11.4073 18.4351 12.1475 18.7663C12.8797 19.0938 13.4466 19.5409 13.8614 19.9816L5.12299 28.2059C6.30415 29.4609 8.0012 30.293 9.9375 30.293V18.293ZM13.9912 20.124C14.7032 20.9309 15.3164 22.1584 15.3164 23.6602H3.31641C3.31641 25.4744 4.04685 26.991 4.99316 28.0635L13.9912 20.124ZM15.3164 23.6602C15.3164 24.242 15.2197 24.9039 14.9588 25.5862C14.6961 26.2732 14.3114 26.8642 13.8655 27.3444L5.07199 19.179C3.88795 20.4541 3.31641 22.0676 3.31641 23.6602H15.3164ZM13.8551 27.3556C12.9936 28.2786 11.7897 28.9002 10.4642 29.0327L9.27017 17.0923C7.63215 17.2561 6.16262 18.0105 5.08242 19.1678L13.8551 27.3556ZM10.5637 29.0219C11.0216 28.9684 11.4601 28.934 11.8798 28.917L11.3937 16.9268C10.6571 16.9567 9.91589 17.016 9.17063 17.1031L10.5637 29.0219ZM17.6357 23.0331L17.9052 8.49009L5.90728 8.26772L5.63775 22.8107L17.6357 23.0331ZM12.1179 2.38264C11.4852 2.36031 10.8964 2.33449 10.3508 2.30539L9.7117 14.2884C10.3379 14.3218 10.9992 14.3506 11.6946 14.3752L12.1179 2.38264ZM10.4357 2.31052C9.88362 2.27322 9.39901 2.23669 8.97931 2.20112L7.966 14.1583C8.46818 14.2008 9.02263 14.2424 9.62677 14.2832L10.4357 2.31052ZM2.61553 6.8781C2.57336 7.0679 2.51864 7.30881 2.45053 7.60397L14.1432 10.3023C14.2157 9.98807 14.2782 9.71335 14.3298 9.48127L2.61553 6.8781ZM2.41926 7.74746C2.37606 7.95804 2.32139 8.19846 2.25336 8.47057L13.8951 11.381C13.9989 10.9656 14.0927 10.5576 14.1745 10.1588L2.41926 7.74746ZM2.22342 8.59605C2.15051 8.91685 2.07361 9.24649 1.99265 9.58503L13.6636 12.3759C13.7545 11.9957 13.8417 11.6222 13.925 11.2555L2.22342 8.59605ZM1.99973 9.55575C1.93574 9.81752 1.87266 10.0491 1.81164 10.2525L13.3056 13.7006C13.432 13.2791 13.5486 12.8465 13.6565 12.4052L1.99973 9.55575ZM1.8024 10.2836C2.11714 9.21344 2.76246 8.26764 3.62901 7.58678L11.0429 17.0226C12.1282 16.1699 12.9219 15.0053 13.3148 13.6696L1.8024 10.2836ZM3.46028 7.72437C4.44 6.89538 5.69537 6.43359 6.98438 6.43359V18.4336C8.53901 18.4336 10.0287 17.8859 11.2116 16.885L3.46028 7.72437ZM6.98438 6.43359C7.60166 6.43359 8.32305 6.54382 9.06662 6.85691C9.81663 7.1727 10.4368 7.63103 10.9163 8.14245L2.16184 16.3497C3.474 17.7494 5.2371 18.4336 6.98438 18.4336V6.43359ZM11.0381 8.27636C11.75 9.08323 12.3633 10.3108 12.3633 11.8125H0.363281C0.363281 13.6267 1.09372 15.1433 2.04004 16.2158L11.0381 8.27636ZM12.3633 11.8125C12.3633 11.8125 12.3633 11.8124 12.3633 11.8124C12.3633 11.8123 12.3633 11.8123 12.3633 11.8122C12.3633 11.8122 12.3633 11.8121 12.3633 11.8121C12.3633 11.812 12.3633 11.812 12.3633 11.8119C12.3633 11.8119 12.3633 11.8119 12.3633 11.8118C12.3633 11.8118 12.3633 11.8117 12.3633 11.8117C12.3633 11.8116 12.3633 11.8116 12.3633 11.8115C12.3633 11.8115 12.3633 11.8114 12.3633 11.8114C12.3633 11.8114 12.3633 11.8113 12.3633 11.8113C12.3633 11.8112 12.3633 11.8112 12.3633 11.8111C12.3633 11.8111 12.3633 11.811 12.3633 11.811C12.3633 11.8109 12.3633 11.8109 12.3633 11.8108C12.3633 11.8108 12.3633 11.8108 12.3633 11.8107C12.3633 11.8107 12.3633 11.8106 12.3633 11.8106C12.3633 11.8105 12.3633 11.8105 12.3633 11.8104C12.3633 11.8104 12.3633 11.8103 12.3633 11.8103C12.3633 11.8102 12.3633 11.8102 12.3633 11.8102C12.3633 11.8101 12.3633 11.8101 12.3633 11.81C12.3633 11.81 12.3633 11.8099 12.3633 11.8099C12.3633 11.8098 12.3633 11.8098 12.3633 11.8097C12.3633 11.8097 12.3633 11.8096 12.3633 11.8096C12.3633 11.8095 12.3633 11.8095 12.3633 11.8095C12.3633 11.8094 12.3633 11.8094 12.3633 11.8093C12.3633 11.8093 12.3633 11.8092 12.3633 11.8092C12.3633 11.8091 12.3633 11.8091 12.3633 11.809C12.3633 11.809 12.3633 11.8089 12.3633 11.8089C12.3633 11.8089 12.3633 11.8088 12.3633 11.8088C12.3633 11.8087 12.3633 11.8087 12.3633 11.8086C12.3633 11.8086 12.3633 11.8085 12.3633 11.8085C12.3633 11.8084 12.3633 11.8084 12.3633 11.8083C12.3633 11.8083 12.3633 11.8082 12.3633 11.8082C12.3633 11.8082 12.3633 11.8081 12.3633 11.8081C12.3633 11.808 12.3633 11.808 12.3633 11.8079C12.3633 11.8079 12.3633 11.8078 12.3633 11.8078C12.3633 11.8077 12.3633 11.8077 12.3633 11.8076C12.3633 11.8076 12.3633 11.8075 12.3633 11.8075C12.3633 11.8075 12.3633 11.8074 12.3633 11.8074C12.3633 11.8073 12.3633 11.8073 12.3633 11.8072C12.3633 11.8072 12.3633 11.8071 12.3633 11.8071C12.3633 11.807 12.3633 11.807 12.3633 11.8069C12.3633 11.8069 12.3633 11.8068 12.3633 11.8068C12.3633 11.8067 12.3633 11.8067 12.3633 11.8067C12.3633 11.8066 12.3633 11.8066 12.3633 11.8065C12.3633 11.8065 12.3633 11.8064 12.3633 11.8064C12.3633 11.8063 12.3633 11.8063 12.3633 11.8062C12.3633 11.8062 12.3633 11.8061 12.3633 11.8061C12.3633 11.806 12.3633 11.806 12.3633 11.8059C12.3633 11.8059 12.3633 11.8059 12.3633 11.8058C12.3633 11.8058 12.3633 11.8057 12.3633 11.8057C12.3633 11.8056 12.3633 11.8056 12.3633 11.8055C12.3633 11.8055 12.3633 11.8054 12.3633 11.8054C12.3633 11.8053 12.3633 11.8053 12.3633 11.8052C12.3633 11.8052 12.3633 11.8051 12.3633 11.8051C12.3633 11.805 12.3633 11.805 12.3633 11.805C12.3633 11.8049 12.3633 11.8049 12.3633 11.8048C12.3633 11.8048 12.3633 11.8047 12.3633 11.8047C12.3633 11.8046 12.3633 11.8046 12.3633 11.8045C12.3633 11.8045 12.3633 11.8044 12.3633 11.8044C12.3633 11.8043 12.3633 11.8043 12.3633 11.8042C12.3633 11.8042 12.3633 11.8041 12.3633 11.8041C12.3633 11.8041 12.3633 11.804 12.3633 11.804C12.3633 11.8039 12.3633 11.8039 12.3633 11.8038C12.3633 11.8038 12.3633 11.8037 12.3633 11.8037C12.3633 11.8036 12.3633 11.8036 12.3633 11.8035C12.3633 11.8035 12.3633 11.8034 12.3633 11.8034C12.3633 11.8033 12.3633 11.8033 12.3633 11.8032C12.3633 11.8032 12.3633 11.8031 12.3633 11.8031C12.3633 11.8031 12.3633 11.803 12.3633 11.803C12.3633 11.8029 12.3633 11.8029 12.3633 11.8028C12.3633 11.8028 12.3633 11.8027 12.3633 11.8027C12.3633 11.8026 12.3633 11.8026 12.3633 11.8025C12.3633 11.8025 12.3633 11.8024 12.3633 11.8024C12.3633 11.8023 12.3633 11.8023 12.3633 11.8022C12.3633 11.8022 12.3633 11.8021 12.3633 11.8021C12.3633 11.802 12.3633 11.802 12.3633 11.8019C12.3633 11.8019 12.3633 11.8019 12.3633 11.8018C12.3633 11.8018 12.3633 11.8017 12.3633 11.8017C12.3633 11.8016 12.3633 11.8016 12.3633 11.8015C12.3633 11.8015 12.3633 11.8014 12.3633 11.8014C12.3633 11.8013 12.3633 11.8013 12.3633 11.8012C12.3633 11.8012 12.3633 11.8011 12.3633 11.8011C12.3633 11.801 12.3633 11.801 12.3633 11.8009C12.3633 11.8009 12.3633 11.8008 12.3633 11.8008C12.3633 11.8007 12.3633 11.8007 12.3633 11.8006C12.3633 11.8006 12.3633 11.8006 12.3633 11.8005C12.3633 11.8005 12.3633 11.8004 12.3633 11.8004C12.3633 11.8003 12.3633 11.8003 12.3633 11.8002C12.3633 11.8002 12.3633 11.8001 12.3633 11.8001C12.3633 11.8 12.3633 11.8 12.3633 11.7999C12.3633 11.7999 12.3633 11.7998 12.3633 11.7998C12.3633 11.7997 12.3633 11.7997 12.3633 11.7996C12.3633 11.7996 12.3633 11.7995 12.3633 11.7995C12.3633 11.7994 12.3633 11.7994 12.3633 11.7993C12.3633 11.7993 12.3633 11.7992 12.3633 11.7992C12.3633 11.7991 12.3633 11.7991 12.3633 11.7991C12.3633 11.799 12.3633 11.799 12.3633 11.7989C12.3633 11.7989 12.3633 11.7988 12.3633 11.7988C12.3633 11.7987 12.3633 11.7987 12.3633 11.7986C12.3633 11.7986 12.3633 11.7985 12.3633 11.7985C12.3633 11.7984 12.3633 11.7984 12.3633 11.7983C12.3633 11.7983 12.3633 11.7982 12.3633 11.7982C12.3633 11.7981 12.3633 11.7981 12.3633 11.798C12.3633 11.798 12.3633 11.7979 12.3633 11.7979C12.3633 11.7978 12.3633 11.7978 12.3633 11.7977C12.3633 11.7977 12.3633 11.7976 12.3633 11.7976C12.3633 11.7975 12.3633 11.7975 12.3633 11.7974C12.3633 11.7974 12.3633 11.7973 12.3633 11.7973C12.3633 11.7972 12.3633 11.7972 12.3633 11.7971C12.3633 11.7971 12.3633 11.797 12.3633 11.797C12.3633 11.797 12.3633 11.7969 12.3633 11.7969C12.3633 11.7968 12.3633 11.7968 12.3633 11.7967C12.3633 11.7967 12.3633 11.7966 12.3633 11.7966C12.3633 11.7965 12.3633 11.7965 12.3633 11.7964C12.3633 11.7964 12.3633 11.7963 12.3633 11.7963C12.3633 11.7962 12.3633 11.7962 12.3633 11.7961C12.3633 11.7961 12.3633 11.796 12.3633 11.796C12.3633 11.7959 12.3633 11.7959 12.3633 11.7958C12.3633 11.7958 12.3633 11.7957 12.3633 11.7957C12.3633 11.7956 12.3633 11.7956 12.3633 11.7955C12.3633 11.7955 12.3633 11.7954 12.3633 11.7954C12.3633 11.7953 12.3633 11.7953 12.3633 11.7952C12.3633 11.7952 12.3633 11.7951 12.3633 11.7951C12.3633 11.795 12.3633 11.795 12.3633 11.7949C12.3633 11.7949 12.3633 11.7948 12.3633 11.7948C12.3633 11.7947 12.3633 11.7947 12.3633 11.7946C12.3633 11.7946 12.3633 11.7945 12.3633 11.7945C12.3633 11.7944 12.3633 11.7944 12.3633 11.7943C12.3633 11.7943 12.3633 11.7942 12.3633 11.7942C12.3633 11.7941 12.3633 11.7941 12.3633 11.794C12.3633 11.794 12.3633 11.7939 12.3633 11.7939C12.3633 11.7938 12.3633 11.7938 12.3633 11.7937C12.3633 11.7937 12.3633 11.7936 12.3633 11.7936C12.3633 11.7935 12.3633 11.7935 12.3633 11.7934C12.3633 11.7934 12.3633 11.7933 12.3633 11.7933C12.3633 11.7932 12.3633 11.7932 12.3633 11.7931C12.3633 11.7931 12.3633 11.793 12.3633 11.793C12.3633 11.7929 12.3633 11.7929 12.3633 11.7928C12.3633 11.7928 12.3633 11.7927 12.3633 11.7927C12.3633 11.7926 12.3633 11.7926 12.3633 11.7925C12.3633 11.7925 12.3633 11.7924 12.3633 11.7924C12.3633 11.7923 12.3633 11.7923 12.3633 11.7922C12.3633 11.7922 12.3633 11.7921 12.3633 11.7921C12.3633 11.792 12.3633 11.792 12.3633 11.7919C12.3633 11.7919 12.3633 11.7918 12.3633 11.7918C12.3633 11.7917 12.3633 11.7917 12.3633 11.7916C12.3633 11.7916 12.3633 11.7915 12.3633 11.7915C12.3633 11.7914 12.3633 11.7914 12.3633 11.7913C12.3633 11.7913 12.3633 11.7912 12.3633 11.7912C12.3633 11.7911 12.3633 11.7911 12.3633 11.791C12.3633 11.791 12.3633 11.7909 12.3633 11.7909C12.3633 11.7908 12.3633 11.7908 12.3633 11.7907C12.3633 11.7907 12.3633 11.7906 12.3633 11.7906C12.3633 11.7905 12.3633 11.7905 12.3633 11.7904C12.3633 11.7904 12.3633 11.7903 12.3633 11.7903C12.3633 11.7902 12.3633 11.7902 12.3633 11.7901C12.3633 11.7901 12.3633 11.79 12.3633 11.79C12.3633 11.7899 12.3633 11.7899 12.3633 11.7898C12.3633 11.7898 12.3633 11.7897 12.3633 11.7897C12.3633 11.7896 12.3633 11.7896 12.3633 11.7895C12.3633 11.7895 12.3633 11.7894 12.3633 11.7894C12.3633 11.7893 12.3633 11.7893 12.3633 11.7892C12.3633 11.7892 12.3633 11.7891 12.3633 11.7891C12.3633 11.789 12.3633 11.789 12.3633 11.7889C12.3633 11.7889 12.3633 11.7888 12.3633 11.7888C12.3633 11.7887 12.3633 11.7887 12.3633 11.7886C12.3633 11.7886 12.3633 11.7885 12.3633 11.7885C12.3633 11.7884 12.3633 11.7884 12.3633 11.7883C12.3633 11.7883 12.3633 11.7882 12.3633 11.7882C12.3633 11.7881 12.3633 11.7881 12.3633 11.788C12.3633 11.788 12.3633 11.7879 12.3633 11.7879C12.3633 11.7878 12.3633 11.7878 12.3633 11.7877C12.3633 11.7877 12.3633 11.7876 12.3633 11.7876C12.3633 11.7875 12.3633 11.7875 12.3633 11.7874C12.3633 11.7874 12.3633 11.7873 12.3633 11.7873C12.3633 11.7872 12.3633 11.7871 12.3633 11.7871C12.3633 11.787 12.3633 11.787 12.3633 11.7869C12.3633 11.7869 12.3633 11.7868 12.3633 11.7868C12.3633 11.7867 12.3633 11.7867 12.3633 11.7866C12.3633 11.7866 12.3633 11.7865 12.3633 11.7865C12.3633 11.7864 12.3633 11.7864 12.3633 11.7863C12.3633 11.7863 12.3633 11.7862 12.3633 11.7862C12.3633 11.7861 12.3633 11.7861 12.3633 11.786C12.3633 11.786 12.3633 11.7859 12.3633 11.7859C12.3633 11.7858 12.3633 11.7858 12.3633 11.7857C12.3633 11.7857 12.3633 11.7856 12.3633 11.7856C12.3633 11.7855 12.3633 11.7855 12.3633 11.7854C12.3633 11.7854 12.3633 11.7853 12.3633 11.7853C12.3633 11.7852 12.3633 11.7852 12.3633 11.7851C12.3633 11.7851 12.3633 11.785 12.3633 11.7849C12.3633 11.7849 12.3633 11.7848 12.3633 11.7848C12.3633 11.7847 12.3633 11.7847 12.3633 11.7846C12.3633 11.7846 12.3633 11.7845 12.3633 11.7845C12.3633 11.7844 12.3633 11.7844 12.3633 11.7843C12.3633 11.7843 12.3633 11.7842 12.3633 11.7842C12.3633 11.7841 12.3633 11.7841 12.3633 11.784C12.3633 11.784 12.3633 11.7839 12.3633 11.7839C12.3633 11.7838 12.3633 11.7838 12.3633 11.7837C12.3633 11.7837 12.3633 11.7836 12.3633 11.7836C12.3633 11.7835 12.3633 11.7835 12.3633 11.7834C12.3633 11.7833 12.3633 11.7833 12.3633 11.7832C12.3633 11.7832 12.3633 11.7831 12.3633 11.7831C12.3633 11.783 12.3633 11.783 12.3633 11.7829C12.3633 11.7829 12.3633 11.7828 12.3633 11.7828C12.3633 11.7827 12.3633 11.7827 12.3633 11.7826C12.3633 11.7826 12.3633 11.7825 12.3633 11.7825C12.3633 11.7824 12.3633 11.7824 12.3633 11.7823C12.3633 11.7823 12.3633 11.7822 12.3633 11.7822C12.3633 11.7821 12.3633 11.7821 12.3633 11.782C12.3633 11.7819 12.3633 11.7819 12.3633 11.7818C12.3633 11.7818 12.3633 11.7817 12.3633 11.7817C12.3633 11.7816 12.3633 11.7816 12.3633 11.7815C12.3633 11.7815 12.3633 11.7814 12.3633 11.7814C12.3633 11.7813 12.3633 11.7813 12.3633 11.7812C12.3633 11.7812 12.3633 11.7811 12.3633 11.7811C12.3633 11.781 12.3633 11.781 12.3633 11.7809C12.3633 11.7809 12.3633 11.7808 12.3633 11.7808C12.3633 11.7807 12.3633 11.7806 12.3633 11.7806C12.3633 11.7805 12.3633 11.7805 12.3633 11.7804C12.3633 11.7804 12.3633 11.7803 12.3633 11.7803C12.3633 11.7802 12.3633 11.7802 12.3633 11.7801C12.3633 11.7801 12.3633 11.78 12.3633 11.78C12.3633 11.7799 12.3633 11.7799 12.3633 11.7798C12.3633 11.7798 12.3633 11.7797 12.3633 11.7797C12.3633 11.7796 12.3633 11.7795 12.3633 11.7795C12.3633 11.7794 12.3633 11.7794 12.3633 11.7793C12.3633 11.7793 12.3633 11.7792 12.3633 11.7792C12.3633 11.7791 12.3633 11.7791 12.3633 11.779C12.3633 11.779 12.3633 11.7789 12.3633 11.7789C12.3633 11.7788 12.3633 11.7788 12.3633 11.7787C12.3633 11.7787 12.3633 11.7786 12.3633 11.7785C12.3633 11.7785 12.3633 11.7784 12.3633 11.7784C12.3633 11.7783 12.3633 11.7783 12.3633 11.7782C12.3633 11.7782 12.3633 11.7781 12.3633 11.7781C12.3633 11.778 12.3633 11.778 12.3633 11.7779C12.3633 11.7779 12.3633 11.7778 12.3633 11.7778C12.3633 11.7777 12.3633 11.7777 12.3633 11.7776C12.3633 11.7775 12.3633 11.7775 12.3633 11.7774C12.3633 11.7774 12.3633 11.7773 12.3633 11.7773C12.3633 11.7772 12.3633 11.7772 12.3633 11.7771C12.3633 11.7771 12.3633 11.777 12.3633 11.777C12.3633 11.7769 12.3633 11.7769 12.3633 11.7768C12.3633 11.7768 12.3633 11.7767 12.3633 11.7766C12.3633 11.7766 12.3633 11.7765 12.3633 11.7765C12.3633 11.7764 12.3633 11.7764 12.3633 11.7763C12.3633 11.7763 12.3633 11.7762 12.3633 11.7762C12.3633 11.7761 12.3633 11.7761 12.3633 11.776C12.3633 11.776 12.3633 11.7759 12.3633 11.7759C12.3633 11.7758 12.3633 11.7757 12.3633 11.7757C12.3633 11.7756 12.3633 11.7756 12.3633 11.7755C12.3633 11.7755 12.3633 11.7754 12.3633 11.7754C12.3633 11.7753 12.3633 11.7753 12.3633 11.7752C12.3633 11.7752 12.3633 11.7751 12.3633 11.7751C12.3633 11.775 12.3633 11.7749 12.3633 11.7749C12.3633 11.7748 12.3633 11.7748 12.3633 11.7747C12.3633 11.7747 12.3633 11.7746 12.3633 11.7746C12.3633 11.7745 12.3633 11.7745 12.3633 11.7744C12.3633 11.7744 12.3633 11.7743 12.3633 11.7743C12.3633 11.7742 12.3633 11.7741 12.3633 11.7741C12.3633 11.774 12.3633 11.774 12.3633 11.7739C12.3633 11.7739 12.3633 11.7738 12.3633 11.7738C12.3633 11.7737 12.3633 11.7737 12.3633 11.7736C12.3633 11.7736 12.3633 11.7735 12.3633 11.7735C12.3633 11.7734 12.3633 11.7733 12.3633 11.7733C12.3633 11.7732 12.3633 11.7732 12.3633 11.7731C12.3633 11.7731 12.3633 11.773 12.3633 11.773C12.3633 11.7729 12.3633 11.7729 12.3633 11.7728C12.3633 11.7728 12.3633 11.7727 12.3633 11.7726C12.3633 11.7726 12.3633 11.7725 12.3633 11.7725C12.3633 11.7724 12.3633 11.7724 12.3633 11.7723C12.3633 11.7723 12.3633 11.7722 12.3633 11.7722C12.3633 11.7721 12.3633 11.7721 12.3633 11.772C12.3633 11.7719 12.3633 11.7719 12.3633 11.7718C12.3633 11.7718 12.3633 11.7717 12.3633 11.7717C12.3633 11.7716 12.3633 11.7716 12.3633 11.7715C12.3633 11.7715 12.3633 11.7714 12.3633 11.7714C12.3633 11.7713 12.3633 11.7712 12.3633 11.7712C12.3633 11.7711 12.3633 11.7711 12.3633 11.771C12.3633 11.771 12.3633 11.7709 12.3633 11.7709C12.3633 11.7708 12.3633 11.7708 12.3633 11.7707C12.3633 11.7707 12.3633 11.7706 12.3633 11.7705C12.3633 11.7705 12.3633 11.7704 12.3633 11.7704C12.3633 11.7703 12.3633 11.7703 12.3633 11.7702C12.3633 11.7702 12.3633 11.7701 12.3633 11.7701C12.3633 11.77 12.3633 11.7699 12.3633 11.7699C12.3633 11.7698 12.3633 11.7698 12.3633 11.7697C12.3633 11.7697 12.3633 11.7696 12.3633 11.7696C12.3633 11.7695 12.3633 11.7695 12.3633 11.7694C12.3633 11.7694 12.3633 11.7693 12.3633 11.7692C12.3633 11.7692 12.3633 11.7691 12.3633 11.7691C12.3633 11.769 12.3633 11.769 12.3633 11.7689C12.3633 11.7689 12.3633 11.7688 12.3633 11.7688C12.3633 11.7687 12.3633 11.7686 12.3633 11.7686C12.3633 11.7685 12.3633 11.7685 12.3633 11.7684C12.3633 11.7684 12.3633 11.7683 12.3633 11.7683C12.3633 11.7682 12.3633 11.7682 12.3633 11.7681C12.3633 11.768 12.3633 11.768 12.3633 11.7679C12.3633 11.7679 12.3633 11.7678 12.3633 11.7678C12.3633 11.7677 12.3633 11.7677 12.3633 11.7676C12.3633 11.7676 12.3633 11.7675 12.3633 11.7674C12.3633 11.7674 12.3633 11.7673 12.3633 11.7673C12.3633 11.7672 12.3633 11.7672 12.3633 11.7671C12.3633 11.7671 12.3633 11.767 12.3633 11.7669C12.3633 11.7669 12.3633 11.7668 12.3633 11.7668C12.3633 11.7667 12.3633 11.7667 12.3633 11.7666C12.3633 11.7666 12.3633 11.7665 12.3633 11.7665C12.3633 11.7664 12.3633 11.7663 12.3633 11.7663C12.3633 11.7662 12.3633 11.7662 12.3633 11.7661C12.3633 11.7661 12.3633 11.766 12.3633 11.766C12.3633 11.7659 12.3633 11.7659 12.3633 11.7658C12.3633 11.7657 12.3633 11.7657 12.3633 11.7656C12.3633 11.7656 12.3633 11.7655 12.3633 11.7655C12.3633 11.7654 12.3633 11.7654 12.3633 11.7653C12.3633 11.7652 12.3633 11.7652 12.3633 11.7651C12.3633 11.7651 12.3633 11.765 12.3633 11.765C12.3633 11.7649 12.3633 11.7649 12.3633 11.7648C12.3633 11.7648 12.3633 11.7647 12.3633 11.7646C12.3633 11.7646 12.3633 11.7645 12.3633 11.7645C12.3633 11.7644 12.3633 11.7644 12.3633 11.7643C12.3633 11.7643 12.3633 11.7642 12.3633 11.7641C12.3633 11.7641 12.3633 11.764 12.3633 11.764C12.3633 11.7639 12.3633 11.7639 12.3633 11.7638C12.3633 11.7638 12.3633 11.7637 12.3633 11.7636C12.3633 11.7636 12.3633 11.7635 12.3633 11.7635C12.3633 11.7634 12.3633 11.7634 12.3633 11.7633C12.3633 11.7633 12.3633 11.7632 12.3633 11.7631C12.3633 11.7631 12.3633 11.763 12.3633 11.763C12.3633 11.7629 12.3633 11.7629 12.3633 11.7628C12.3633 11.7628 12.3633 11.7627 12.3633 11.7626C12.3633 11.7626 12.3633 11.7625 12.3633 11.7625C12.3633 11.7624 12.3633 11.7624 12.3633 11.7623C12.3633 11.7623 12.3633 11.7622 12.3633 11.7621C12.3633 11.7621 12.3633 11.762 12.3633 11.762C12.3633 11.7619 12.3633 11.7619 12.3633 11.7618C12.3633 11.7618 12.3633 11.7617 12.3633 11.7616C12.3633 11.7616 12.3633 11.7615 12.3633 11.7615C12.3633 11.7614 12.3633 11.7614 12.3633 11.7613C12.3633 11.7613 12.3633 11.7612 12.3633 11.7611C12.3633 11.7611 12.3633 11.761 12.3633 11.761C12.3633 11.7609 12.3633 11.7609 12.3633 11.7608C12.3633 11.7608 12.3633 11.7607 12.3633 11.7606C12.3633 11.7606 12.3633 11.7605 12.3633 11.7605C12.3633 11.7604 12.3633 11.7604 12.3633 11.7603C12.3633 11.7602 12.3633 11.7602 12.3633 11.7601C12.3633 11.7601 12.3633 11.76 12.3633 11.76C12.3633 11.7599 12.3633 11.7599 12.3633 11.7598C12.3633 11.7597 12.3633 11.7597 12.3633 11.7596C12.3633 11.7596 12.3633 11.7595 12.3633 11.7595C12.3633 11.7594 12.3633 11.7594 12.3633 11.7593C12.3633 11.7592 12.3633 11.7592 12.3633 11.7591C12.3633 11.7591 12.3633 11.759 12.3633 11.759C12.3633 11.7589 12.3633 11.7588 12.3633 11.7588C12.3633 11.7587 12.3633 11.7587 12.3633 11.7586C12.3633 11.7586 12.3633 11.7585 12.3633 11.7585C12.3633 11.7584 12.3633 11.7583 12.3633 11.7583C12.3633 11.7582 12.3633 11.7582 12.3633 11.7581C12.3633 11.7581 12.3633 11.758 12.3633 11.7579C12.3633 11.7579 12.3633 11.7578 12.3633 11.7578C12.3633 11.7577 12.3633 11.7577 12.3633 11.7576C12.3633 11.7576 12.3633 11.7575 12.3633 11.7574C12.3633 11.7574 12.3633 11.7573 12.3633 11.7573C12.3633 11.7572 12.3633 11.7572 12.3633 11.7571C12.3633 11.757 12.3633 11.757 12.3633 11.7569C12.3633 11.7569 12.3633 11.7568 12.3633 11.7568C12.3633 11.7567 12.3633 11.7566 12.3633 11.7566C12.3633 11.7565 12.3633 11.7565 12.3633 11.7564C12.3633 11.7564 12.3633 11.7563 12.3633 11.7562C12.3633 11.7562 12.3633 11.7561 12.3633 11.7561C12.3633 11.756 12.3633 11.756 12.3633 11.7559C12.3633 11.7559 12.3633 11.7558 12.3633 11.7557C12.3633 11.7557 12.3633 11.7556 12.3633 11.7556C12.3633 11.7555 12.3633 11.7555 12.3633 11.7554C12.3633 11.7553 12.3633 11.7553 12.3633 11.7552C12.3633 11.7552 12.3633 11.7551 12.3633 11.7551C12.3633 11.755 12.3633 11.7549 12.3633 11.7549C12.3633 11.7548 12.3633 11.7548 12.3633 11.7547C12.3633 11.7547 12.3633 11.7546 12.3633 11.7545C12.3633 11.7545 12.3633 11.7544 12.3633 11.7544C12.3633 11.7543 12.3633 11.7543 12.3633 11.7542C12.3633 11.7541 12.3633 11.7541 12.3633 11.754C12.3633 11.754 12.3633 11.7539 12.3633 11.7539C12.3633 11.7538 12.3633 11.7537 12.3633 11.7537C12.3633 11.7536 12.3633 11.7536 12.3633 11.7535C12.3633 11.7535 12.3633 11.7534 12.3633 11.7533C12.3633 11.7533 12.3633 11.7532 12.3633 11.7532C12.3633 11.7531 12.3633 11.7531 12.3633 11.753C12.3633 11.7529 12.3633 11.7529 12.3633 11.7528C12.3633 11.7528 12.3633 11.7527 12.3633 11.7527C12.3633 11.7526 12.3633 11.7525 12.3633 11.7525C12.3633 11.7524 12.3633 11.7524 12.3633 11.7523C12.3633 11.7523 12.3633 11.7522 12.3633 11.7521C12.3633 11.7521 12.3633 11.752 12.3633 11.752C12.3633 11.7519 12.3633 11.7519 12.3633 11.7518C12.3633 11.7517 12.3633 11.7517 12.3633 11.7516C12.3633 11.7516 12.3633 11.7515 12.3633 11.7515C12.3633 11.7514 12.3633 11.7513 12.3633 11.7513C12.3633 11.7512 12.3633 11.7512 12.3633 11.7511C12.3633 11.751 12.3633 11.751 12.3633 11.7509C12.3633 11.7509 12.3633 11.7508 12.3633 11.7508C12.3633 11.7507 12.3633 11.7506 12.3633 11.7506C12.3633 11.7505 12.3633 11.7505 12.3633 11.7504C12.3633 11.7504 12.3633 11.7503 12.3633 11.7502C12.3633 11.7502 12.3633 11.7501 12.3633 11.7501C12.3633 11.75 12.3633 11.75 12.3633 11.7499C12.3633 11.7498 12.3633 11.7498 12.3633 11.7497C12.3633 11.7497 12.3633 11.7496 12.3633 11.7495C12.3633 11.7495 12.3633 11.7494 12.3633 11.7494C12.3633 11.7493 12.3633 11.7493 12.3633 11.7492C12.3633 11.7491 12.3633 11.7491 12.3633 11.749C12.3633 11.749 12.3633 11.7489 12.3633 11.7489C12.3633 11.7488 12.3633 11.7487 12.3633 11.7487C12.3633 11.7486 12.3633 11.7486 12.3633 11.7485C12.3633 11.7484 12.3633 11.7484 12.3633 11.7483C12.3633 11.7483 12.3633 11.7482 12.3633 11.7482C12.3633 11.7481 12.3633 11.748 12.3633 11.748C12.3633 11.7479 12.3633 11.7479 12.3633 11.7478C12.3633 11.7478 12.3633 11.7477 12.3633 11.7476C12.3633 11.7476 12.3633 11.7475 12.3633 11.7475C12.3633 11.7474 12.3633 11.7473 12.3633 11.7473C12.3633 11.7472 12.3633 11.7472 12.3633 11.7471C12.3633 11.7471 12.3633 11.747 12.3633 11.7469C12.3633 11.7469 12.3633 11.7468 12.3633 11.7468C12.3633 11.7467 12.3633 11.7466 12.3633 11.7466C12.3633 11.7465 12.3633 11.7465 12.3633 11.7464C12.3633 11.7464 12.3633 11.7463 12.3633 11.7462C12.3633 11.7462 12.3633 11.7461 12.3633 11.7461C12.3633 11.746 12.3633 11.7459 12.3633 11.7459C12.3633 11.7458 12.3633 11.7458 12.3633 11.7457C12.3633 11.7457 12.3633 11.7456 12.3633 11.7455C12.3633 11.7455 12.3633 11.7454 12.3633 11.7454C12.3633 11.7453 12.3633 11.7452 12.3633 11.7452C12.3633 11.7451 12.3633 11.7451 12.3633 11.745C12.3633 11.7449 12.3633 11.7449 12.3633 11.7448C12.3633 11.7448 12.3633 11.7447 12.3633 11.7447C12.3633 11.7446 12.3633 11.7445 12.3633 11.7445C12.3633 11.7444 12.3633 11.7444 12.3633 11.7443C12.3633 11.7442 12.3633 11.7442 12.3633 11.7441C12.3633 11.7441 12.3633 11.744 12.3633 11.744C12.3633 11.7439 12.3633 11.7438 12.3633 11.7438C12.3633 11.7437 12.3633 11.7437 12.3633 11.7436C12.3633 11.7435 12.3633 11.7435 12.3633 11.7434C12.3633 11.7434 12.3633 11.7433 12.3633 11.7432C12.3633 11.7432 12.3633 11.7431 12.3633 11.7431C12.3633 11.743 12.3633 11.7429 12.3633 11.7429C12.3633 11.7428 12.3633 11.7428 12.3633 11.7427C12.3633 11.7427 12.3633 11.7426 12.3633 11.7425C12.3633 11.7425 12.3633 11.7424 12.3633 11.7424C12.3633 11.7423 12.3633 11.7422 12.3633 11.7422C12.3633 11.7421 12.3633 11.7421 12.3633 11.742C12.3633 11.7419 12.3633 11.7419 12.3633 11.7418C12.3633 11.7418 12.3633 11.7417 12.3633 11.7416C12.3633 11.7416 12.3633 11.7415 12.3633 11.7415C12.3633 11.7414 12.3633 11.7414 12.3633 11.7413C12.3633 11.7412 12.3633 11.7412 12.3633 11.7411C12.3633 11.7411 12.3633 11.741 12.3633 11.7409C12.3633 11.7409 12.3633 11.7408 12.3633 11.7408C12.3633 11.7407 12.3633 11.7406 12.3633 11.7406C12.3633 11.7405 12.3633 11.7405 12.3633 11.7404C12.3633 11.7403 12.3633 11.7403 12.3633 11.7402C12.3633 11.7402 12.3633 11.7401 12.3633 11.74C12.3633 11.74 12.3633 11.7399 12.3633 11.7399C12.3633 11.7398 12.3633 11.7398 12.3633 11.7397C12.3633 11.7396 12.3633 11.7396 12.3633 11.7395C12.3633 11.7395 12.3633 11.7394 12.3633 11.7393C12.3633 11.7393 12.3633 11.7392 12.3633 11.7392C12.3633 11.7391 12.3633 11.739 12.3633 11.739C12.3633 11.7389 12.3633 11.7389 12.3633 11.7388C12.3633 11.7387 12.3633 11.7387 12.3633 11.7386C12.3633 11.7386 12.3633 11.7385 12.3633 11.7384C12.3633 11.7384 12.3633 11.7383 12.3633 11.7383C12.3633 11.7382 12.3633 11.7381 12.3633 11.7381C12.3633 11.738 12.3633 11.738 12.3633 11.7379C12.3633 11.7378 12.3633 11.7378 12.3633 11.7377C12.3633 11.7377 12.3633 11.7376 12.3633 11.7375C12.3633 11.7375 12.3633 11.7374 12.3633 11.7374C12.3633 11.7373 12.3633 11.7372 12.3633 11.7372C12.3633 11.7371 12.3633 11.7371 12.3633 11.737C12.3633 11.7369 12.3633 11.7369 12.3633 11.7368C12.3633 11.7368 12.3633 11.7367 12.3633 11.7366C12.3633 11.7366 12.3633 11.7365 12.3633 11.7365C12.3633 11.7364 12.3633 11.7363 12.3633 11.7363C12.3633 11.7362 12.3633 11.7362 12.3633 11.7361C12.3633 11.736 12.3633 11.736 12.3633 11.7359C12.3633 11.7359 12.3633 11.7358 12.3633 11.7357C12.3633 11.7357 12.3633 11.7356 12.3633 11.7356C12.3633 11.7355 12.3633 11.7354 12.3633 11.7354C12.3633 11.7353 12.3633 11.7353 12.3633 11.7352C12.3633 11.7351 12.3633 11.7351 12.3633 11.735C12.3633 11.735 12.3633 11.7349 12.3633 11.7348C12.3633 11.7348 12.3633 11.7347 12.3633 11.7347C12.3633 11.7346 12.3633 11.7345 12.3633 11.7345C12.3633 11.7344 12.3633 11.7344 12.3633 11.7343C12.3633 11.7342 12.3633 11.7342 12.3633 11.7341C12.3633 11.7341 12.3633 11.734 12.3633 11.7339C12.3633 11.7339 12.3633 11.7338 12.3633 11.7338C12.3633 11.7337 12.3633 11.7336 12.3633 11.7336C12.3633 11.7335 12.3633 11.7334 12.3633 11.7334C12.3633 11.7333 12.3633 11.7333 12.3633 11.7332C12.3633 11.7331 12.3633 11.7331 12.3633 11.733C12.3633 11.733 12.3633 11.7329 12.3633 11.7328C12.3633 11.7328 12.3633 11.7327 12.3633 11.7327C12.3633 11.7326 12.3633 11.7325 12.3633 11.7325C12.3633 11.7324 12.3633 11.7324 12.3633 11.7323C12.3633 11.7322 12.3633 11.7322 12.3633 11.7321C12.3633 11.7321 12.3633 11.732 12.3633 11.7319C12.3633 11.7319 12.3633 11.7318 12.3633 11.7317C12.3633 11.7317 12.3633 11.7316 12.3633 11.7316C12.3633 11.7315 12.3633 11.7314 12.3633 11.7314C12.3633 11.7313 12.3633 11.7313 12.3633 11.7312C12.3633 11.7311 12.3633 11.7311 12.3633 11.731C12.3633 11.731 12.3633 11.7309 12.3633 11.7308C12.3633 11.7308 12.3633 11.7307 12.3633 11.7307C12.3633 11.7306 12.3633 11.7305 12.3633 11.7305H0.363281C0.363281 11.7305 0.363281 11.7306 0.363281 11.7307C0.363281 11.7307 0.363281 11.7308 0.363281 11.7308C0.363281 11.7309 0.363281 11.731 0.363281 11.731C0.363281 11.7311 0.363281 11.7311 0.363281 11.7312C0.363281 11.7313 0.363281 11.7313 0.363281 11.7314C0.363281 11.7314 0.363281 11.7315 0.363281 11.7316C0.363281 11.7316 0.363281 11.7317 0.363281 11.7317C0.363281 11.7318 0.363281 11.7319 0.363281 11.7319C0.363281 11.732 0.363281 11.7321 0.363281 11.7321C0.363281 11.7322 0.363281 11.7322 0.363281 11.7323C0.363281 11.7324 0.363281 11.7324 0.363281 11.7325C0.363281 11.7325 0.363281 11.7326 0.363281 11.7327C0.363281 11.7327 0.363281 11.7328 0.363281 11.7328C0.363281 11.7329 0.363281 11.733 0.363281 11.733C0.363281 11.7331 0.363281 11.7331 0.363281 11.7332C0.363281 11.7333 0.363281 11.7333 0.363281 11.7334C0.363281 11.7334 0.363281 11.7335 0.363281 11.7336C0.363281 11.7336 0.363281 11.7337 0.363281 11.7338C0.363281 11.7338 0.363281 11.7339 0.363281 11.7339C0.363281 11.734 0.363281 11.7341 0.363281 11.7341C0.363281 11.7342 0.363281 11.7342 0.363281 11.7343C0.363281 11.7344 0.363281 11.7344 0.363281 11.7345C0.363281 11.7345 0.363281 11.7346 0.363281 11.7347C0.363281 11.7347 0.363281 11.7348 0.363281 11.7348C0.363281 11.7349 0.363281 11.735 0.363281 11.735C0.363281 11.7351 0.363281 11.7351 0.363281 11.7352C0.363281 11.7353 0.363281 11.7353 0.363281 11.7354C0.363281 11.7354 0.363281 11.7355 0.363281 11.7356C0.363281 11.7356 0.363281 11.7357 0.363281 11.7357C0.363281 11.7358 0.363281 11.7359 0.363281 11.7359C0.363281 11.736 0.363281 11.736 0.363281 11.7361C0.363281 11.7362 0.363281 11.7362 0.363281 11.7363C0.363281 11.7363 0.363281 11.7364 0.363281 11.7365C0.363281 11.7365 0.363281 11.7366 0.363281 11.7366C0.363281 11.7367 0.363281 11.7368 0.363281 11.7368C0.363281 11.7369 0.363281 11.7369 0.363281 11.737C0.363281 11.7371 0.363281 11.7371 0.363281 11.7372C0.363281 11.7372 0.363281 11.7373 0.363281 11.7374C0.363281 11.7374 0.363281 11.7375 0.363281 11.7375C0.363281 11.7376 0.363281 11.7377 0.363281 11.7377C0.363281 11.7378 0.363281 11.7378 0.363281 11.7379C0.363281 11.738 0.363281 11.738 0.363281 11.7381C0.363281 11.7381 0.363281 11.7382 0.363281 11.7383C0.363281 11.7383 0.363281 11.7384 0.363281 11.7384C0.363281 11.7385 0.363281 11.7386 0.363281 11.7386C0.363281 11.7387 0.363281 11.7387 0.363281 11.7388C0.363281 11.7389 0.363281 11.7389 0.363281 11.739C0.363281 11.739 0.363281 11.7391 0.363281 11.7392C0.363281 11.7392 0.363281 11.7393 0.363281 11.7393C0.363281 11.7394 0.363281 11.7395 0.363281 11.7395C0.363281 11.7396 0.363281 11.7396 0.363281 11.7397C0.363281 11.7398 0.363281 11.7398 0.363281 11.7399C0.363281 11.7399 0.363281 11.74 0.363281 11.74C0.363281 11.7401 0.363281 11.7402 0.363281 11.7402C0.363281 11.7403 0.363281 11.7403 0.363281 11.7404C0.363281 11.7405 0.363281 11.7405 0.363281 11.7406C0.363281 11.7406 0.363281 11.7407 0.363281 11.7408C0.363281 11.7408 0.363281 11.7409 0.363281 11.7409C0.363281 11.741 0.363281 11.7411 0.363281 11.7411C0.363281 11.7412 0.363281 11.7412 0.363281 11.7413C0.363281 11.7414 0.363281 11.7414 0.363281 11.7415C0.363281 11.7415 0.363281 11.7416 0.363281 11.7416C0.363281 11.7417 0.363281 11.7418 0.363281 11.7418C0.363281 11.7419 0.363281 11.7419 0.363281 11.742C0.363281 11.7421 0.363281 11.7421 0.363281 11.7422C0.363281 11.7422 0.363281 11.7423 0.363281 11.7424C0.363281 11.7424 0.363281 11.7425 0.363281 11.7425C0.363281 11.7426 0.363281 11.7427 0.363281 11.7427C0.363281 11.7428 0.363281 11.7428 0.363281 11.7429C0.363281 11.7429 0.363281 11.743 0.363281 11.7431C0.363281 11.7431 0.363281 11.7432 0.363281 11.7432C0.363281 11.7433 0.363281 11.7434 0.363281 11.7434C0.363281 11.7435 0.363281 11.7435 0.363281 11.7436C0.363281 11.7437 0.363281 11.7437 0.363281 11.7438C0.363281 11.7438 0.363281 11.7439 0.363281 11.744C0.363281 11.744 0.363281 11.7441 0.363281 11.7441C0.363281 11.7442 0.363281 11.7442 0.363281 11.7443C0.363281 11.7444 0.363281 11.7444 0.363281 11.7445C0.363281 11.7445 0.363281 11.7446 0.363281 11.7447C0.363281 11.7447 0.363281 11.7448 0.363281 11.7448C0.363281 11.7449 0.363281 11.7449 0.363281 11.745C0.363281 11.7451 0.363281 11.7451 0.363281 11.7452C0.363281 11.7452 0.363281 11.7453 0.363281 11.7454C0.363281 11.7454 0.363281 11.7455 0.363281 11.7455C0.363281 11.7456 0.363281 11.7457 0.363281 11.7457C0.363281 11.7458 0.363281 11.7458 0.363281 11.7459C0.363281 11.7459 0.363281 11.746 0.363281 11.7461C0.363281 11.7461 0.363281 11.7462 0.363281 11.7462C0.363281 11.7463 0.363281 11.7464 0.363281 11.7464C0.363281 11.7465 0.363281 11.7465 0.363281 11.7466C0.363281 11.7466 0.363281 11.7467 0.363281 11.7468C0.363281 11.7468 0.363281 11.7469 0.363281 11.7469C0.363281 11.747 0.363281 11.7471 0.363281 11.7471C0.363281 11.7472 0.363281 11.7472 0.363281 11.7473C0.363281 11.7473 0.363281 11.7474 0.363281 11.7475C0.363281 11.7475 0.363281 11.7476 0.363281 11.7476C0.363281 11.7477 0.363281 11.7478 0.363281 11.7478C0.363281 11.7479 0.363281 11.7479 0.363281 11.748C0.363281 11.748 0.363281 11.7481 0.363281 11.7482C0.363281 11.7482 0.363281 11.7483 0.363281 11.7483C0.363281 11.7484 0.363281 11.7484 0.363281 11.7485C0.363281 11.7486 0.363281 11.7486 0.363281 11.7487C0.363281 11.7487 0.363281 11.7488 0.363281 11.7489C0.363281 11.7489 0.363281 11.749 0.363281 11.749C0.363281 11.7491 0.363281 11.7491 0.363281 11.7492C0.363281 11.7493 0.363281 11.7493 0.363281 11.7494C0.363281 11.7494 0.363281 11.7495 0.363281 11.7495C0.363281 11.7496 0.363281 11.7497 0.363281 11.7497C0.363281 11.7498 0.363281 11.7498 0.363281 11.7499C0.363281 11.75 0.363281 11.75 0.363281 11.7501C0.363281 11.7501 0.363281 11.7502 0.363281 11.7502C0.363281 11.7503 0.363281 11.7504 0.363281 11.7504C0.363281 11.7505 0.363281 11.7505 0.363281 11.7506C0.363281 11.7506 0.363281 11.7507 0.363281 11.7508C0.363281 11.7508 0.363281 11.7509 0.363281 11.7509C0.363281 11.751 0.363281 11.751 0.363281 11.7511C0.363281 11.7512 0.363281 11.7512 0.363281 11.7513C0.363281 11.7513 0.363281 11.7514 0.363281 11.7515C0.363281 11.7515 0.363281 11.7516 0.363281 11.7516C0.363281 11.7517 0.363281 11.7517 0.363281 11.7518C0.363281 11.7519 0.363281 11.7519 0.363281 11.752C0.363281 11.752 0.363281 11.7521 0.363281 11.7521C0.363281 11.7522 0.363281 11.7523 0.363281 11.7523C0.363281 11.7524 0.363281 11.7524 0.363281 11.7525C0.363281 11.7525 0.363281 11.7526 0.363281 11.7527C0.363281 11.7527 0.363281 11.7528 0.363281 11.7528C0.363281 11.7529 0.363281 11.7529 0.363281 11.753C0.363281 11.7531 0.363281 11.7531 0.363281 11.7532C0.363281 11.7532 0.363281 11.7533 0.363281 11.7533C0.363281 11.7534 0.363281 11.7535 0.363281 11.7535C0.363281 11.7536 0.363281 11.7536 0.363281 11.7537C0.363281 11.7537 0.363281 11.7538 0.363281 11.7539C0.363281 11.7539 0.363281 11.754 0.363281 11.754C0.363281 11.7541 0.363281 11.7541 0.363281 11.7542C0.363281 11.7543 0.363281 11.7543 0.363281 11.7544C0.363281 11.7544 0.363281 11.7545 0.363281 11.7545C0.363281 11.7546 0.363281 11.7547 0.363281 11.7547C0.363281 11.7548 0.363281 11.7548 0.363281 11.7549C0.363281 11.7549 0.363281 11.755 0.363281 11.7551C0.363281 11.7551 0.363281 11.7552 0.363281 11.7552C0.363281 11.7553 0.363281 11.7553 0.363281 11.7554C0.363281 11.7555 0.363281 11.7555 0.363281 11.7556C0.363281 11.7556 0.363281 11.7557 0.363281 11.7557C0.363281 11.7558 0.363281 11.7559 0.363281 11.7559C0.363281 11.756 0.363281 11.756 0.363281 11.7561C0.363281 11.7561 0.363281 11.7562 0.363281 11.7562C0.363281 11.7563 0.363281 11.7564 0.363281 11.7564C0.363281 11.7565 0.363281 11.7565 0.363281 11.7566C0.363281 11.7566 0.363281 11.7567 0.363281 11.7568C0.363281 11.7568 0.363281 11.7569 0.363281 11.7569C0.363281 11.757 0.363281 11.757 0.363281 11.7571C0.363281 11.7572 0.363281 11.7572 0.363281 11.7573C0.363281 11.7573 0.363281 11.7574 0.363281 11.7574C0.363281 11.7575 0.363281 11.7576 0.363281 11.7576C0.363281 11.7577 0.363281 11.7577 0.363281 11.7578C0.363281 11.7578 0.363281 11.7579 0.363281 11.7579C0.363281 11.758 0.363281 11.7581 0.363281 11.7581C0.363281 11.7582 0.363281 11.7582 0.363281 11.7583C0.363281 11.7583 0.363281 11.7584 0.363281 11.7585C0.363281 11.7585 0.363281 11.7586 0.363281 11.7586C0.363281 11.7587 0.363281 11.7587 0.363281 11.7588C0.363281 11.7588 0.363281 11.7589 0.363281 11.759C0.363281 11.759 0.363281 11.7591 0.363281 11.7591C0.363281 11.7592 0.363281 11.7592 0.363281 11.7593C0.363281 11.7594 0.363281 11.7594 0.363281 11.7595C0.363281 11.7595 0.363281 11.7596 0.363281 11.7596C0.363281 11.7597 0.363281 11.7597 0.363281 11.7598C0.363281 11.7599 0.363281 11.7599 0.363281 11.76C0.363281 11.76 0.363281 11.7601 0.363281 11.7601C0.363281 11.7602 0.363281 11.7602 0.363281 11.7603C0.363281 11.7604 0.363281 11.7604 0.363281 11.7605C0.363281 11.7605 0.363281 11.7606 0.363281 11.7606C0.363281 11.7607 0.363281 11.7608 0.363281 11.7608C0.363281 11.7609 0.363281 11.7609 0.363281 11.761C0.363281 11.761 0.363281 11.7611 0.363281 11.7611C0.363281 11.7612 0.363281 11.7613 0.363281 11.7613C0.363281 11.7614 0.363281 11.7614 0.363281 11.7615C0.363281 11.7615 0.363281 11.7616 0.363281 11.7616C0.363281 11.7617 0.363281 11.7618 0.363281 11.7618C0.363281 11.7619 0.363281 11.7619 0.363281 11.762C0.363281 11.762 0.363281 11.7621 0.363281 11.7621C0.363281 11.7622 0.363281 11.7623 0.363281 11.7623C0.363281 11.7624 0.363281 11.7624 0.363281 11.7625C0.363281 11.7625 0.363281 11.7626 0.363281 11.7626C0.363281 11.7627 0.363281 11.7628 0.363281 11.7628C0.363281 11.7629 0.363281 11.7629 0.363281 11.763C0.363281 11.763 0.363281 11.7631 0.363281 11.7631C0.363281 11.7632 0.363281 11.7633 0.363281 11.7633C0.363281 11.7634 0.363281 11.7634 0.363281 11.7635C0.363281 11.7635 0.363281 11.7636 0.363281 11.7636C0.363281 11.7637 0.363281 11.7638 0.363281 11.7638C0.363281 11.7639 0.363281 11.7639 0.363281 11.764C0.363281 11.764 0.363281 11.7641 0.363281 11.7641C0.363281 11.7642 0.363281 11.7643 0.363281 11.7643C0.363281 11.7644 0.363281 11.7644 0.363281 11.7645C0.363281 11.7645 0.363281 11.7646 0.363281 11.7646C0.363281 11.7647 0.363281 11.7648 0.363281 11.7648C0.363281 11.7649 0.363281 11.7649 0.363281 11.765C0.363281 11.765 0.363281 11.7651 0.363281 11.7651C0.363281 11.7652 0.363281 11.7652 0.363281 11.7653C0.363281 11.7654 0.363281 11.7654 0.363281 11.7655C0.363281 11.7655 0.363281 11.7656 0.363281 11.7656C0.363281 11.7657 0.363281 11.7657 0.363281 11.7658C0.363281 11.7659 0.363281 11.7659 0.363281 11.766C0.363281 11.766 0.363281 11.7661 0.363281 11.7661C0.363281 11.7662 0.363281 11.7662 0.363281 11.7663C0.363281 11.7663 0.363281 11.7664 0.363281 11.7665C0.363281 11.7665 0.363281 11.7666 0.363281 11.7666C0.363281 11.7667 0.363281 11.7667 0.363281 11.7668C0.363281 11.7668 0.363281 11.7669 0.363281 11.7669C0.363281 11.767 0.363281 11.7671 0.363281 11.7671C0.363281 11.7672 0.363281 11.7672 0.363281 11.7673C0.363281 11.7673 0.363281 11.7674 0.363281 11.7674C0.363281 11.7675 0.363281 11.7676 0.363281 11.7676C0.363281 11.7677 0.363281 11.7677 0.363281 11.7678C0.363281 11.7678 0.363281 11.7679 0.363281 11.7679C0.363281 11.768 0.363281 11.768 0.363281 11.7681C0.363281 11.7682 0.363281 11.7682 0.363281 11.7683C0.363281 11.7683 0.363281 11.7684 0.363281 11.7684C0.363281 11.7685 0.363281 11.7685 0.363281 11.7686C0.363281 11.7686 0.363281 11.7687 0.363281 11.7688C0.363281 11.7688 0.363281 11.7689 0.363281 11.7689C0.363281 11.769 0.363281 11.769 0.363281 11.7691C0.363281 11.7691 0.363281 11.7692 0.363281 11.7692C0.363281 11.7693 0.363281 11.7694 0.363281 11.7694C0.363281 11.7695 0.363281 11.7695 0.363281 11.7696C0.363281 11.7696 0.363281 11.7697 0.363281 11.7697C0.363281 11.7698 0.363281 11.7698 0.363281 11.7699C0.363281 11.7699 0.363281 11.77 0.363281 11.7701C0.363281 11.7701 0.363281 11.7702 0.363281 11.7702C0.363281 11.7703 0.363281 11.7703 0.363281 11.7704C0.363281 11.7704 0.363281 11.7705 0.363281 11.7705C0.363281 11.7706 0.363281 11.7707 0.363281 11.7707C0.363281 11.7708 0.363281 11.7708 0.363281 11.7709C0.363281 11.7709 0.363281 11.771 0.363281 11.771C0.363281 11.7711 0.363281 11.7711 0.363281 11.7712C0.363281 11.7712 0.363281 11.7713 0.363281 11.7714C0.363281 11.7714 0.363281 11.7715 0.363281 11.7715C0.363281 11.7716 0.363281 11.7716 0.363281 11.7717C0.363281 11.7717 0.363281 11.7718 0.363281 11.7718C0.363281 11.7719 0.363281 11.7719 0.363281 11.772C0.363281 11.7721 0.363281 11.7721 0.363281 11.7722C0.363281 11.7722 0.363281 11.7723 0.363281 11.7723C0.363281 11.7724 0.363281 11.7724 0.363281 11.7725C0.363281 11.7725 0.363281 11.7726 0.363281 11.7726C0.363281 11.7727 0.363281 11.7728 0.363281 11.7728C0.363281 11.7729 0.363281 11.7729 0.363281 11.773C0.363281 11.773 0.363281 11.7731 0.363281 11.7731C0.363281 11.7732 0.363281 11.7732 0.363281 11.7733C0.363281 11.7733 0.363281 11.7734 0.363281 11.7735C0.363281 11.7735 0.363281 11.7736 0.363281 11.7736C0.363281 11.7737 0.363281 11.7737 0.363281 11.7738C0.363281 11.7738 0.363281 11.7739 0.363281 11.7739C0.363281 11.774 0.363281 11.774 0.363281 11.7741C0.363281 11.7741 0.363281 11.7742 0.363281 11.7743C0.363281 11.7743 0.363281 11.7744 0.363281 11.7744C0.363281 11.7745 0.363281 11.7745 0.363281 11.7746C0.363281 11.7746 0.363281 11.7747 0.363281 11.7747C0.363281 11.7748 0.363281 11.7748 0.363281 11.7749C0.363281 11.7749 0.363281 11.775 0.363281 11.7751C0.363281 11.7751 0.363281 11.7752 0.363281 11.7752C0.363281 11.7753 0.363281 11.7753 0.363281 11.7754C0.363281 11.7754 0.363281 11.7755 0.363281 11.7755C0.363281 11.7756 0.363281 11.7756 0.363281 11.7757C0.363281 11.7757 0.363281 11.7758 0.363281 11.7759C0.363281 11.7759 0.363281 11.776 0.363281 11.776C0.363281 11.7761 0.363281 11.7761 0.363281 11.7762C0.363281 11.7762 0.363281 11.7763 0.363281 11.7763C0.363281 11.7764 0.363281 11.7764 0.363281 11.7765C0.363281 11.7765 0.363281 11.7766 0.363281 11.7766C0.363281 11.7767 0.363281 11.7768 0.363281 11.7768C0.363281 11.7769 0.363281 11.7769 0.363281 11.777C0.363281 11.777 0.363281 11.7771 0.363281 11.7771C0.363281 11.7772 0.363281 11.7772 0.363281 11.7773C0.363281 11.7773 0.363281 11.7774 0.363281 11.7774C0.363281 11.7775 0.363281 11.7775 0.363281 11.7776C0.363281 11.7777 0.363281 11.7777 0.363281 11.7778C0.363281 11.7778 0.363281 11.7779 0.363281 11.7779C0.363281 11.778 0.363281 11.778 0.363281 11.7781C0.363281 11.7781 0.363281 11.7782 0.363281 11.7782C0.363281 11.7783 0.363281 11.7783 0.363281 11.7784C0.363281 11.7784 0.363281 11.7785 0.363281 11.7785C0.363281 11.7786 0.363281 11.7787 0.363281 11.7787C0.363281 11.7788 0.363281 11.7788 0.363281 11.7789C0.363281 11.7789 0.363281 11.779 0.363281 11.779C0.363281 11.7791 0.363281 11.7791 0.363281 11.7792C0.363281 11.7792 0.363281 11.7793 0.363281 11.7793C0.363281 11.7794 0.363281 11.7794 0.363281 11.7795C0.363281 11.7795 0.363281 11.7796 0.363281 11.7797C0.363281 11.7797 0.363281 11.7798 0.363281 11.7798C0.363281 11.7799 0.363281 11.7799 0.363281 11.78C0.363281 11.78 0.363281 11.7801 0.363281 11.7801C0.363281 11.7802 0.363281 11.7802 0.363281 11.7803C0.363281 11.7803 0.363281 11.7804 0.363281 11.7804C0.363281 11.7805 0.363281 11.7805 0.363281 11.7806C0.363281 11.7806 0.363281 11.7807 0.363281 11.7808C0.363281 11.7808 0.363281 11.7809 0.363281 11.7809C0.363281 11.781 0.363281 11.781 0.363281 11.7811C0.363281 11.7811 0.363281 11.7812 0.363281 11.7812C0.363281 11.7813 0.363281 11.7813 0.363281 11.7814C0.363281 11.7814 0.363281 11.7815 0.363281 11.7815C0.363281 11.7816 0.363281 11.7816 0.363281 11.7817C0.363281 11.7817 0.363281 11.7818 0.363281 11.7818C0.363281 11.7819 0.363281 11.7819 0.363281 11.782C0.363281 11.7821 0.363281 11.7821 0.363281 11.7822C0.363281 11.7822 0.363281 11.7823 0.363281 11.7823C0.363281 11.7824 0.363281 11.7824 0.363281 11.7825C0.363281 11.7825 0.363281 11.7826 0.363281 11.7826C0.363281 11.7827 0.363281 11.7827 0.363281 11.7828C0.363281 11.7828 0.363281 11.7829 0.363281 11.7829C0.363281 11.783 0.363281 11.783 0.363281 11.7831C0.363281 11.7831 0.363281 11.7832 0.363281 11.7832C0.363281 11.7833 0.363281 11.7833 0.363281 11.7834C0.363281 11.7835 0.363281 11.7835 0.363281 11.7836C0.363281 11.7836 0.363281 11.7837 0.363281 11.7837C0.363281 11.7838 0.363281 11.7838 0.363281 11.7839C0.363281 11.7839 0.363281 11.784 0.363281 11.784C0.363281 11.7841 0.363281 11.7841 0.363281 11.7842C0.363281 11.7842 0.363281 11.7843 0.363281 11.7843C0.363281 11.7844 0.363281 11.7844 0.363281 11.7845C0.363281 11.7845 0.363281 11.7846 0.363281 11.7846C0.363281 11.7847 0.363281 11.7847 0.363281 11.7848C0.363281 11.7848 0.363281 11.7849 0.363281 11.7849C0.363281 11.785 0.363281 11.7851 0.363281 11.7851C0.363281 11.7852 0.363281 11.7852 0.363281 11.7853C0.363281 11.7853 0.363281 11.7854 0.363281 11.7854C0.363281 11.7855 0.363281 11.7855 0.363281 11.7856C0.363281 11.7856 0.363281 11.7857 0.363281 11.7857C0.363281 11.7858 0.363281 11.7858 0.363281 11.7859C0.363281 11.7859 0.363281 11.786 0.363281 11.786C0.363281 11.7861 0.363281 11.7861 0.363281 11.7862C0.363281 11.7862 0.363281 11.7863 0.363281 11.7863C0.363281 11.7864 0.363281 11.7864 0.363281 11.7865C0.363281 11.7865 0.363281 11.7866 0.363281 11.7866C0.363281 11.7867 0.363281 11.7867 0.363281 11.7868C0.363281 11.7868 0.363281 11.7869 0.363281 11.7869C0.363281 11.787 0.363281 11.787 0.363281 11.7871C0.363281 11.7871 0.363281 11.7872 0.363281 11.7873C0.363281 11.7873 0.363281 11.7874 0.363281 11.7874C0.363281 11.7875 0.363281 11.7875 0.363281 11.7876C0.363281 11.7876 0.363281 11.7877 0.363281 11.7877C0.363281 11.7878 0.363281 11.7878 0.363281 11.7879C0.363281 11.7879 0.363281 11.788 0.363281 11.788C0.363281 11.7881 0.363281 11.7881 0.363281 11.7882C0.363281 11.7882 0.363281 11.7883 0.363281 11.7883C0.363281 11.7884 0.363281 11.7884 0.363281 11.7885C0.363281 11.7885 0.363281 11.7886 0.363281 11.7886C0.363281 11.7887 0.363281 11.7887 0.363281 11.7888C0.363281 11.7888 0.363281 11.7889 0.363281 11.7889C0.363281 11.789 0.363281 11.789 0.363281 11.7891C0.363281 11.7891 0.363281 11.7892 0.363281 11.7892C0.363281 11.7893 0.363281 11.7893 0.363281 11.7894C0.363281 11.7894 0.363281 11.7895 0.363281 11.7895C0.363281 11.7896 0.363281 11.7896 0.363281 11.7897C0.363281 11.7897 0.363281 11.7898 0.363281 11.7898C0.363281 11.7899 0.363281 11.7899 0.363281 11.79C0.363281 11.79 0.363281 11.7901 0.363281 11.7901C0.363281 11.7902 0.363281 11.7902 0.363281 11.7903C0.363281 11.7903 0.363281 11.7904 0.363281 11.7904C0.363281 11.7905 0.363281 11.7905 0.363281 11.7906C0.363281 11.7906 0.363281 11.7907 0.363281 11.7907C0.363281 11.7908 0.363281 11.7908 0.363281 11.7909C0.363281 11.7909 0.363281 11.791 0.363281 11.791C0.363281 11.7911 0.363281 11.7911 0.363281 11.7912C0.363281 11.7912 0.363281 11.7913 0.363281 11.7913C0.363281 11.7914 0.363281 11.7914 0.363281 11.7915C0.363281 11.7915 0.363281 11.7916 0.363281 11.7916C0.363281 11.7917 0.363281 11.7917 0.363281 11.7918C0.363281 11.7918 0.363281 11.7919 0.363281 11.7919C0.363281 11.792 0.363281 11.792 0.363281 11.7921C0.363281 11.7921 0.363281 11.7922 0.363281 11.7922C0.363281 11.7923 0.363281 11.7923 0.363281 11.7924C0.363281 11.7924 0.363281 11.7925 0.363281 11.7925C0.363281 11.7926 0.363281 11.7926 0.363281 11.7927C0.363281 11.7927 0.363281 11.7928 0.363281 11.7928C0.363281 11.7929 0.363281 11.7929 0.363281 11.793C0.363281 11.793 0.363281 11.7931 0.363281 11.7931C0.363281 11.7932 0.363281 11.7932 0.363281 11.7933C0.363281 11.7933 0.363281 11.7934 0.363281 11.7934C0.363281 11.7935 0.363281 11.7935 0.363281 11.7936C0.363281 11.7936 0.363281 11.7937 0.363281 11.7937C0.363281 11.7938 0.363281 11.7938 0.363281 11.7939C0.363281 11.7939 0.363281 11.794 0.363281 11.794C0.363281 11.7941 0.363281 11.7941 0.363281 11.7942C0.363281 11.7942 0.363281 11.7943 0.363281 11.7943C0.363281 11.7944 0.363281 11.7944 0.363281 11.7945C0.363281 11.7945 0.363281 11.7946 0.363281 11.7946C0.363281 11.7947 0.363281 11.7947 0.363281 11.7948C0.363281 11.7948 0.363281 11.7949 0.363281 11.7949C0.363281 11.795 0.363281 11.795 0.363281 11.7951C0.363281 11.7951 0.363281 11.7952 0.363281 11.7952C0.363281 11.7953 0.363281 11.7953 0.363281 11.7954C0.363281 11.7954 0.363281 11.7955 0.363281 11.7955C0.363281 11.7956 0.363281 11.7956 0.363281 11.7957C0.363281 11.7957 0.363281 11.7958 0.363281 11.7958C0.363281 11.7959 0.363281 11.7959 0.363281 11.796C0.363281 11.796 0.363281 11.7961 0.363281 11.7961C0.363281 11.7962 0.363281 11.7962 0.363281 11.7963C0.363281 11.7963 0.363281 11.7964 0.363281 11.7964C0.363281 11.7965 0.363281 11.7965 0.363281 11.7966C0.363281 11.7966 0.363281 11.7967 0.363281 11.7967C0.363281 11.7968 0.363281 11.7968 0.363281 11.7969C0.363281 11.7969 0.363281 11.797 0.363281 11.797C0.363281 11.797 0.363281 11.7971 0.363281 11.7971C0.363281 11.7972 0.363281 11.7972 0.363281 11.7973C0.363281 11.7973 0.363281 11.7974 0.363281 11.7974C0.363281 11.7975 0.363281 11.7975 0.363281 11.7976C0.363281 11.7976 0.363281 11.7977 0.363281 11.7977C0.363281 11.7978 0.363281 11.7978 0.363281 11.7979C0.363281 11.7979 0.363281 11.798 0.363281 11.798C0.363281 11.7981 0.363281 11.7981 0.363281 11.7982C0.363281 11.7982 0.363281 11.7983 0.363281 11.7983C0.363281 11.7984 0.363281 11.7984 0.363281 11.7985C0.363281 11.7985 0.363281 11.7986 0.363281 11.7986C0.363281 11.7987 0.363281 11.7987 0.363281 11.7988C0.363281 11.7988 0.363281 11.7989 0.363281 11.7989C0.363281 11.799 0.363281 11.799 0.363281 11.7991C0.363281 11.7991 0.363281 11.7991 0.363281 11.7992C0.363281 11.7992 0.363281 11.7993 0.363281 11.7993C0.363281 11.7994 0.363281 11.7994 0.363281 11.7995C0.363281 11.7995 0.363281 11.7996 0.363281 11.7996C0.363281 11.7997 0.363281 11.7997 0.363281 11.7998C0.363281 11.7998 0.363281 11.7999 0.363281 11.7999C0.363281 11.8 0.363281 11.8 0.363281 11.8001C0.363281 11.8001 0.363281 11.8002 0.363281 11.8002C0.363281 11.8003 0.363281 11.8003 0.363281 11.8004C0.363281 11.8004 0.363281 11.8005 0.363281 11.8005C0.363281 11.8006 0.363281 11.8006 0.363281 11.8006C0.363281 11.8007 0.363281 11.8007 0.363281 11.8008C0.363281 11.8008 0.363281 11.8009 0.363281 11.8009C0.363281 11.801 0.363281 11.801 0.363281 11.8011C0.363281 11.8011 0.363281 11.8012 0.363281 11.8012C0.363281 11.8013 0.363281 11.8013 0.363281 11.8014C0.363281 11.8014 0.363281 11.8015 0.363281 11.8015C0.363281 11.8016 0.363281 11.8016 0.363281 11.8017C0.363281 11.8017 0.363281 11.8018 0.363281 11.8018C0.363281 11.8019 0.363281 11.8019 0.363281 11.8019C0.363281 11.802 0.363281 11.802 0.363281 11.8021C0.363281 11.8021 0.363281 11.8022 0.363281 11.8022C0.363281 11.8023 0.363281 11.8023 0.363281 11.8024C0.363281 11.8024 0.363281 11.8025 0.363281 11.8025C0.363281 11.8026 0.363281 11.8026 0.363281 11.8027C0.363281 11.8027 0.363281 11.8028 0.363281 11.8028C0.363281 11.8029 0.363281 11.8029 0.363281 11.803C0.363281 11.803 0.363281 11.8031 0.363281 11.8031C0.363281 11.8031 0.363281 11.8032 0.363281 11.8032C0.363281 11.8033 0.363281 11.8033 0.363281 11.8034C0.363281 11.8034 0.363281 11.8035 0.363281 11.8035C0.363281 11.8036 0.363281 11.8036 0.363281 11.8037C0.363281 11.8037 0.363281 11.8038 0.363281 11.8038C0.363281 11.8039 0.363281 11.8039 0.363281 11.804C0.363281 11.804 0.363281 11.8041 0.363281 11.8041C0.363281 11.8041 0.363281 11.8042 0.363281 11.8042C0.363281 11.8043 0.363281 11.8043 0.363281 11.8044C0.363281 11.8044 0.363281 11.8045 0.363281 11.8045C0.363281 11.8046 0.363281 11.8046 0.363281 11.8047C0.363281 11.8047 0.363281 11.8048 0.363281 11.8048C0.363281 11.8049 0.363281 11.8049 0.363281 11.805C0.363281 11.805 0.363281 11.805 0.363281 11.8051C0.363281 11.8051 0.363281 11.8052 0.363281 11.8052C0.363281 11.8053 0.363281 11.8053 0.363281 11.8054C0.363281 11.8054 0.363281 11.8055 0.363281 11.8055C0.363281 11.8056 0.363281 11.8056 0.363281 11.8057C0.363281 11.8057 0.363281 11.8058 0.363281 11.8058C0.363281 11.8059 0.363281 11.8059 0.363281 11.8059C0.363281 11.806 0.363281 11.806 0.363281 11.8061C0.363281 11.8061 0.363281 11.8062 0.363281 11.8062C0.363281 11.8063 0.363281 11.8063 0.363281 11.8064C0.363281 11.8064 0.363281 11.8065 0.363281 11.8065C0.363281 11.8066 0.363281 11.8066 0.363281 11.8067C0.363281 11.8067 0.363281 11.8067 0.363281 11.8068C0.363281 11.8068 0.363281 11.8069 0.363281 11.8069C0.363281 11.807 0.363281 11.807 0.363281 11.8071C0.363281 11.8071 0.363281 11.8072 0.363281 11.8072C0.363281 11.8073 0.363281 11.8073 0.363281 11.8074C0.363281 11.8074 0.363281 11.8075 0.363281 11.8075C0.363281 11.8075 0.363281 11.8076 0.363281 11.8076C0.363281 11.8077 0.363281 11.8077 0.363281 11.8078C0.363281 11.8078 0.363281 11.8079 0.363281 11.8079C0.363281 11.808 0.363281 11.808 0.363281 11.8081C0.363281 11.8081 0.363281 11.8082 0.363281 11.8082C0.363281 11.8082 0.363281 11.8083 0.363281 11.8083C0.363281 11.8084 0.363281 11.8084 0.363281 11.8085C0.363281 11.8085 0.363281 11.8086 0.363281 11.8086C0.363281 11.8087 0.363281 11.8087 0.363281 11.8088C0.363281 11.8088 0.363281 11.8089 0.363281 11.8089C0.363281 11.8089 0.363281 11.809 0.363281 11.809C0.363281 11.8091 0.363281 11.8091 0.363281 11.8092C0.363281 11.8092 0.363281 11.8093 0.363281 11.8093C0.363281 11.8094 0.363281 11.8094 0.363281 11.8095C0.363281 11.8095 0.363281 11.8095 0.363281 11.8096C0.363281 11.8096 0.363281 11.8097 0.363281 11.8097C0.363281 11.8098 0.363281 11.8098 0.363281 11.8099C0.363281 11.8099 0.363281 11.81 0.363281 11.81C0.363281 11.8101 0.363281 11.8101 0.363281 11.8102C0.363281 11.8102 0.363281 11.8102 0.363281 11.8103C0.363281 11.8103 0.363281 11.8104 0.363281 11.8104C0.363281 11.8105 0.363281 11.8105 0.363281 11.8106C0.363281 11.8106 0.363281 11.8107 0.363281 11.8107C0.363281 11.8108 0.363281 11.8108 0.363281 11.8108C0.363281 11.8109 0.363281 11.8109 0.363281 11.811C0.363281 11.811 0.363281 11.8111 0.363281 11.8111C0.363281 11.8112 0.363281 11.8112 0.363281 11.8113C0.363281 11.8113 0.363281 11.8114 0.363281 11.8114C0.363281 11.8114 0.363281 11.8115 0.363281 11.8115C0.363281 11.8116 0.363281 11.8116 0.363281 11.8117C0.363281 11.8117 0.363281 11.8118 0.363281 11.8118C0.363281 11.8119 0.363281 11.8119 0.363281 11.8119C0.363281 11.812 0.363281 11.812 0.363281 11.8121C0.363281 11.8121 0.363281 11.8122 0.363281 11.8122C0.363281 11.8123 0.363281 11.8123 0.363281 11.8124C0.363281 11.8124 0.363281 11.8125 0.363281 11.8125H12.3633ZM12.3633 11.7305C12.3633 12.4332 12.2293 13.6895 11.379 14.9649L1.39442 8.30852C0.512914 9.63077 0.363281 10.9496 0.363281 11.7305H12.3633ZM12.16 13.2707C12.3036 12.7631 12.4417 12.2273 12.5751 11.6671L0.901444 8.88762C0.800467 9.31173 0.704207 9.68222 0.613482 10.0028L12.16 13.2707ZM12.5751 11.6671C12.6998 11.1434 12.8139 10.6452 12.9168 10.1735L1.19259 7.61553C1.108 8.00324 1.01113 8.42693 0.901444 8.88762L12.5751 11.6671ZM12.8938 10.2747C13.0003 9.82391 13.0918 9.42428 13.1653 9.0844L1.4363 6.54841C1.38478 6.78665 1.31216 7.10578 1.21558 7.51438L12.8938 10.2747ZM13.1653 9.0844C13.1971 8.93719 13.2233 8.81497 13.2424 8.72434C13.2514 8.68169 13.2622 8.62977 13.2722 8.58002C13.2764 8.55886 13.2859 8.51103 13.2963 8.45393C13.3008 8.42907 13.3121 8.36619 13.3244 8.28655C13.3303 8.24839 13.3418 8.17112 13.3533 8.07329C13.3572 8.04013 13.3945 7.74517 13.3945 7.37109H1.39453C1.39453 7.14867 1.40716 6.97384 1.41362 6.89309C1.42124 6.79778 1.42975 6.72035 1.43554 6.67119C1.44692 6.57439 1.45831 6.49844 1.46393 6.46186C1.4757 6.3854 1.4863 6.32679 1.48985 6.3073C1.49828 6.26095 1.50486 6.22825 1.50519 6.22662C1.50733 6.21593 1.50644 6.22065 1.4998 6.25222C1.48762 6.31003 1.46697 6.40656 1.4363 6.54841L13.1653 9.0844ZM13.197 8.89805C12.9723 9.75196 12.4591 10.7723 11.4811 11.5998L3.72982 2.43921C2.54873 3.4386 1.89492 4.69336 1.59208 5.84413L13.197 8.89805ZM11.3124 11.7374C10.2911 12.5399 9.0915 12.8906 7.99219 12.8906V0.890625C6.596 0.890625 5.13859 1.3273 3.89854 2.30162L11.3124 11.7374ZM7.99219 12.8906H8.08594V0.890625H7.99219V12.8906ZM7.28547 12.837C7.86448 12.9149 8.49679 12.9729 9.15802 13.0176L9.96698 1.0449C9.47196 1.01145 9.1199 0.975692 8.88641 0.944261L7.28547 12.837ZM9.16339 13.018C9.79466 13.06 10.4641 13.0974 11.1705 13.1302L11.728 1.1432C11.0906 1.11355 10.5022 1.08058 9.96161 1.04454L9.16339 13.018ZM11.2424 13.1332C11.9497 13.1575 12.6788 13.1778 13.4296 13.1939L13.6876 1.1967C12.9852 1.18159 12.3081 1.16277 11.656 1.14028L11.2424 13.1332ZM13.4296 13.1939C14.1972 13.2104 14.9512 13.2188 15.6914 13.2188V1.21875C15.041 1.21875 14.3731 1.21144 13.6876 1.1967L13.4296 13.1939ZM15.6914 13.2188C16.5788 13.2188 17.408 13.2106 18.1773 13.1939L17.9165 1.19673C17.2482 1.21126 16.5072 1.21875 15.6914 1.21875V13.2188ZM18.2424 13.1921C19.0162 13.1669 19.7207 13.1316 20.3339 13.0821L19.3693 1.12098C19.0137 1.14965 18.515 1.17686 17.8513 1.1985L18.2424 13.1921ZM19.8516 13.1016H19.8984V1.10156H19.8516V13.1016ZM19.8984 13.1016C18.4437 13.1016 17.2088 12.5275 16.3556 11.788L24.2147 2.71977C23.1271 1.77719 21.6344 1.10156 19.8984 1.10156V13.1016ZM16.537 11.9391C15.5663 11.1626 14.811 9.99131 14.5777 8.59186L26.4145 6.61907C26.1343 4.93838 25.2384 3.53273 24.0333 2.56869L16.537 11.9391ZM14.4961 7.60547C14.4961 7.90319 14.5193 8.136 14.5241 8.18557C14.5329 8.27612 14.542 8.34834 14.547 8.38718C14.5574 8.4665 14.5673 8.5299 14.5717 8.55809C14.5816 8.62049 14.5911 8.67478 14.5962 8.70384C14.6077 8.769 14.6212 8.8418 14.634 8.91042L26.4285 6.69896C26.4236 6.67291 26.4199 6.65286 26.4172 6.63801C26.4143 6.62238 26.4133 6.61675 26.4136 6.61842C26.4138 6.61949 26.4148 6.62523 26.4164 6.63449C26.4177 6.64269 26.4209 6.66128 26.4249 6.68654C26.4279 6.70545 26.4366 6.76141 26.4462 6.83511C26.4509 6.87114 26.4598 6.94101 26.4683 7.02968C26.4727 7.075 26.4787 7.14231 26.4839 7.22417C26.4886 7.29781 26.4961 7.43416 26.4961 7.60547H14.4961ZM14.634 8.91042C14.6563 9.02906 14.6866 9.19205 14.7253 9.40113L26.5247 7.21606C26.4853 7.00326 26.4531 6.83031 26.4285 6.69896L14.634 8.91042ZM14.7253 9.40113C14.7708 9.64701 14.8234 9.91818 14.8821 10.2119L26.6491 7.85846C26.5985 7.60525 26.5573 7.39206 26.5247 7.21606L14.7253 9.40113ZM14.9165 10.3721C14.9828 10.6621 15.0527 10.9626 15.1264 11.2734L26.8033 8.50783C26.7363 8.22491 26.6735 7.95509 26.6148 7.69821L14.9165 10.3721ZM15.1348 11.3087C15.2113 11.6232 15.2916 11.9442 15.3755 12.2715L26.9995 9.291C26.9272 9.00896 26.859 8.73617 26.7948 8.47252L15.1348 11.3087ZM15.4241 12.4496C15.5427 12.8594 15.6734 13.2654 15.8183 13.6637L27.0958 9.56282C27.0531 9.44552 27.0041 9.29685 26.9509 9.1129L15.4241 12.4496ZM30.6548 24.1641L29.6206 30.0742L30.1338 30.1641H30.6548V24.1641ZM29.0611 23.9414L28.4641 29.9116L28.5629 29.9215L28.662 29.9281L29.0611 23.9414ZM28.3463 23.8945L28.1464 29.8912L28.1528 29.8914L28.3463 23.8945ZM25.9673 23.9531L26.4139 29.9365L26.4582 29.9332L26.5025 29.9292L25.9673 23.9531ZM24.2447 24.1875V30.1875H24.8023L25.3504 30.0847L24.2447 24.1875ZM23.6822 24L28.3389 20.2164L28.2788 20.1425L28.2163 20.0704L23.6822 24ZM24.0103 22.9688L23.0499 17.0461L22.7637 17.0925L22.4834 17.1663L24.0103 22.9688ZM24.7955 22.8633L25.3925 28.8335L25.4907 28.8237L25.5885 28.8106L24.7955 22.8633ZM25.5455 22.7812L26.0728 28.758L31.5455 28.2751V22.7812H25.5455ZM25.5455 8.47266H31.5455V2.92998L26.0202 2.49146L25.5455 8.47266ZM24.4791 8.36719L23.3865 14.2669L23.5081 14.2894L23.6305 14.3069L24.4791 8.36719ZM24.1041 8.30859L23.214 14.2422L23.6566 14.3086H24.1041V8.30859ZM23.7173 8.09766L19.0321 11.8458L19.1059 11.938L19.1832 12.0272L23.7173 8.09766ZM23.7877 7.24219L27.3006 12.1063L27.3871 12.0438L27.4713 11.9783L23.7877 7.24219ZM24.4791 7.11328L23.4364 13.022L23.6065 13.052L23.778 13.0722L24.4791 7.11328ZM25.0181 7.18359L24.1983 13.1273L24.3095 13.1427L24.4211 13.1538L25.0181 7.18359ZM25.8384 7.25391L25.3897 13.2371L25.4678 13.243L25.5461 13.2468L25.8384 7.25391ZM27.983 7.24219L28.3734 13.2295L28.4381 13.2252L28.5027 13.2196L27.983 7.24219ZM28.9673 7.10156L30.2034 12.9729L31.3341 12.7348L32.2955 12.0939L28.9673 7.10156ZM29.5416 7.27734L25.0425 11.2471L25.1024 11.315L25.1643 11.381L29.5416 7.27734ZM29.7173 7.69922L35.7173 7.70854V7.69922H29.7173ZM29.6939 22.7812L23.6939 22.7719L23.6856 28.1158L28.9929 28.7402L29.6939 22.7812ZM30.022 22.8281L28.9487 28.7313L29.2344 28.7833L29.5238 28.8074L30.022 22.8281ZM30.2798 22.8633L29.1031 28.7468L29.4174 28.8096L29.7366 28.8386L30.2798 22.8633ZM30.5377 22.8984L29.4643 28.8017L29.75 28.8536L30.0394 28.8777L30.5377 22.8984ZM30.8892 22.9453L32.4162 17.1429L32.1486 17.0724L31.8756 17.0269L30.8892 22.9453ZM31.1939 23.9883L27.2242 19.4893L27.1563 19.5491L27.0903 19.6111L31.1939 23.9883ZM30.772 18.1641H30.6548V30.1641H30.772V18.1641ZM31.6891 18.2539C31.3408 18.1929 31.0097 18.1383 30.6982 18.0911L28.9005 29.9557C29.1047 29.9867 29.3439 30.0258 29.6206 30.0742L31.6891 18.2539ZM30.6982 18.0911C30.2924 18.0297 29.8789 17.9826 29.4602 17.9547L28.662 29.9281C28.7121 29.9315 28.7907 29.9391 28.9005 29.9557L30.6982 18.0911ZM29.6581 17.9712C29.2858 17.9339 28.9128 17.9097 28.5397 17.8977L28.1528 29.8914C28.2641 29.895 28.3677 29.902 28.4641 29.9116L29.6581 17.9712ZM28.5461 17.8979C28.2353 17.8875 27.914 17.8828 27.5845 17.8828V29.8828C27.8019 29.8828 27.9884 29.8859 28.1464 29.8912L28.5461 17.8979ZM27.5845 17.8828C26.861 17.8828 26.143 17.9134 25.4322 17.977L26.5025 29.9292C26.8385 29.8991 27.1987 29.8828 27.5845 29.8828V17.8828ZM25.5208 17.9698C24.7359 18.0283 23.9382 18.1404 23.139 18.2903L25.3504 30.0847C25.8012 30.0002 26.152 29.956 26.4139 29.9365L25.5208 17.9698ZM24.2447 18.1875H24.1275V30.1875H24.2447V18.1875ZM24.1275 18.1875C24.6635 18.1875 25.3963 18.2732 26.198 18.6108C27.0315 18.9617 27.7686 19.5146 28.3389 20.2164L19.0255 27.7836C20.5095 29.61 22.5498 30.1875 24.1275 30.1875V18.1875ZM28.2163 20.0704C29.1646 21.1646 29.5298 22.4626 29.5298 23.5664H17.5298C17.5298 25.014 17.9966 26.601 19.1481 27.9296L28.2163 20.0704ZM29.5298 23.5664C29.5298 24.7541 29.1312 25.9381 28.3767 26.8983L18.9408 19.4845C18.0145 20.6635 17.5298 22.0974 17.5298 23.5664H29.5298ZM28.3767 26.8983C27.5715 27.9231 26.5143 28.5141 25.5373 28.7712L22.4834 17.1663C21.2095 17.5015 19.9179 18.241 18.9408 19.4845L28.3767 26.8983ZM24.9707 28.8914C25.1668 28.8596 25.3047 28.8423 25.3925 28.8335L24.1984 16.8931C23.8175 16.9312 23.432 16.9842 23.0499 17.0461L24.9707 28.8914ZM25.5885 28.8106C25.7242 28.7925 25.885 28.7746 26.0728 28.758L25.0181 16.8045C24.6747 16.8348 24.3355 16.8715 24.0025 16.9159L25.5885 28.8106ZM31.5455 22.7812V8.47266H19.5455V22.7812H31.5455ZM26.0202 2.49146C25.7993 2.47394 25.628 2.45876 25.5003 2.44612C25.3633 2.43258 25.3155 2.42577 25.3276 2.42749L23.6305 14.3069C24.0502 14.3668 24.5673 14.4139 25.0708 14.4538L26.0202 2.49146ZM25.5716 2.4675C25.4431 2.44369 25.2964 2.41752 25.1534 2.39517C25.0835 2.38425 24.979 2.36864 24.8588 2.35433C24.802 2.34757 24.4905 2.30859 24.1041 2.30859V14.3086C23.8856 14.3086 23.7159 14.2962 23.6404 14.2901C23.5508 14.2829 23.4806 14.275 23.4402 14.2702C23.3609 14.2608 23.3083 14.2525 23.3008 14.2513C23.2828 14.2485 23.3041 14.2516 23.3865 14.2669L25.5716 2.4675ZM24.9941 2.37498C26.2234 2.55937 27.3969 3.18204 28.2515 4.16807L19.1832 12.0272C20.2409 13.2476 21.6722 14.0109 23.214 14.2422L24.9941 2.37498ZM28.4026 4.34949C29.1497 5.28342 29.5767 6.46898 29.5767 7.69922H17.5767C17.5767 9.22634 18.0975 10.6775 19.0321 11.8458L28.4026 4.34949ZM29.5767 7.69922C29.5767 8.28634 29.4743 9.08667 29.0772 9.94697C28.6651 10.8398 28.037 11.5744 27.3006 12.1063L20.2747 2.37811C18.2907 3.81104 17.5767 5.94523 17.5767 7.69922H29.5767ZM27.4713 11.9783C26.9166 12.4097 25.7911 13.0781 24.1978 13.0781V1.07812C22.3389 1.07812 20.94 1.85589 20.104 2.50607L27.4713 11.9783ZM24.1978 13.0781H24.2681V1.07812H24.1978V13.0781ZM24.2681 13.0781C24.0984 13.0781 23.9639 13.0708 23.8948 13.0665C23.8166 13.0616 23.7525 13.056 23.7103 13.0521C23.6275 13.0443 23.5624 13.0364 23.5298 13.0323C23.4626 13.0239 23.4118 13.0164 23.3957 13.0139C23.3735 13.0106 23.3575 13.0081 23.3512 13.0071C23.3474 13.0064 23.3445 13.006 23.3429 13.0057C23.342 13.0056 23.3414 13.0055 23.341 13.0054C23.3406 13.0053 23.3403 13.0053 23.3403 13.0053C23.3403 13.0053 23.3409 13.0054 23.3423 13.0056C23.3436 13.0058 23.3454 13.0061 23.3478 13.0065C23.3527 13.0074 23.3594 13.0085 23.3679 13.01C23.3852 13.013 23.4078 13.0169 23.4364 13.022L25.5218 1.20458C25.45 1.19191 25.3769 1.17917 25.3131 1.16855C25.2845 1.16378 25.2335 1.15536 25.1757 1.1467C25.1498 1.14282 25.0912 1.13414 25.0182 1.12501C24.9827 1.12056 24.9151 1.1124 24.8304 1.10446C24.7892 1.1006 24.5601 1.07812 24.2681 1.07812V13.0781ZM23.778 13.0722C23.8531 13.081 23.9878 13.0983 24.1983 13.1273L25.8379 1.23987C25.5953 1.2064 25.3706 1.17679 25.1801 1.15438L23.778 13.0722ZM24.4211 13.1538C24.7179 13.1835 25.0427 13.2111 25.3897 13.2371L26.2872 1.27071C26.0091 1.24986 25.7871 1.23057 25.6151 1.21337L24.4211 13.1538ZM25.5461 13.2468C25.9784 13.2679 26.4247 13.2773 26.8814 13.2773V1.27734C26.5881 1.27734 26.3391 1.27119 26.1308 1.26103L25.5461 13.2468ZM26.8814 13.2773C27.3813 13.2773 27.8789 13.2617 28.3734 13.2295L27.5925 1.25491C27.3683 1.26953 27.1315 1.27734 26.8814 1.27734V13.2773ZM28.5027 13.2196C29.0593 13.1712 29.631 13.0934 30.2034 12.9729L27.7313 1.23026C27.71 1.23475 27.6254 1.25064 27.4632 1.26474L28.5027 13.2196ZM32.2955 12.0939C31.3551 12.7208 30.4776 12.9168 30.0905 12.9872C29.6427 13.0686 29.2852 13.0781 29.0963 13.0781V1.07812C28.8449 1.07812 28.4346 1.09153 27.9438 1.18076C27.5138 1.25896 26.603 1.46667 25.6391 2.10926L32.2955 12.0939ZM29.0963 13.0781C28.4309 13.0781 27.6663 12.9512 26.8921 12.6048C26.1158 12.2575 25.5001 11.7656 25.0425 11.2471L34.0406 3.30761C32.7657 1.86268 30.9688 1.07812 29.0963 1.07812V13.0781ZM25.1643 11.381C24.3486 10.5109 23.7173 9.22041 23.7173 7.69922H35.7173C35.7173 5.86552 34.9689 4.29383 33.9188 3.1737L25.1643 11.381ZM23.7174 7.68989L23.6939 22.7719L35.6939 22.7906L35.7173 7.70854L23.7174 7.68989ZM28.9929 28.7402C29.0198 28.7433 29.0303 28.7449 29.027 28.7444C29.025 28.7441 29.0175 28.743 29.0052 28.7411C28.9931 28.7391 28.974 28.7359 28.9487 28.7313L31.0953 16.9249C30.8395 16.8784 30.5946 16.8458 30.395 16.8223L28.9929 28.7402ZM29.5238 28.8074C29.4292 28.7995 29.2849 28.7831 29.1031 28.7468L31.4565 16.9798C31.1186 16.9122 30.8024 16.8724 30.5203 16.8489L29.5238 28.8074ZM29.7366 28.8386C29.6427 28.8301 29.5518 28.8176 29.4643 28.8017L31.611 16.9952C31.3516 16.9481 31.0888 16.9121 30.8231 16.8879L29.7366 28.8386ZM30.0394 28.8777C29.9666 28.8716 29.9187 28.8655 29.9029 28.8634C29.8853 28.861 29.8843 28.8606 29.9028 28.8637L31.8756 17.0269C31.6464 16.9887 31.3534 16.9456 31.0359 16.9192L30.0394 28.8777ZM29.3623 28.7478C28.4133 28.498 27.4496 27.9508 26.697 27.0727L35.808 19.2632C34.8679 18.1664 33.662 17.4707 32.4162 17.1429L29.3623 28.7478ZM26.697 27.0727C25.8835 26.1237 25.3931 24.8724 25.3931 23.543H37.3931C37.3931 21.9323 36.809 20.431 35.808 19.2632L26.697 27.0727ZM25.3931 23.543C25.3931 22.8776 25.5201 22.113 25.8664 21.3389C26.2137 20.5626 26.7056 19.9468 27.2242 19.4893L35.1636 28.4873C36.6086 27.2124 37.3931 25.4156 37.3931 23.543H25.3931ZM27.0903 19.6111C27.9604 18.7953 29.2508 18.1641 30.772 18.1641V30.1641C32.6057 30.1641 34.1774 29.4156 35.2976 28.3655L27.0903 19.6111Z" fill="black"/>
</svg>
